<svg version="1.1" viewBox="0.0 0.0 956.2729658792651 534.9632545931759" fill="none" stroke="none" stroke-linecap="square" stroke-miterlimit="10" xmlns:xlink="http://www.w3.org/1999/xlink" xmlns="http://www.w3.org/2000/svg"><clipPath id="p.0"><path d="m0 0l956.27295 0l0 534.96326l-956.27295 0l0 -534.96326z" clip-rule="nonzero"/></clipPath><g clip-path="url(#p.0)"><path fill="#000000" fill-opacity="0.0" d="m0 0l956.27295 0l0 534.96326l-956.27295 0z" fill-rule="evenodd"/><path fill="#e69138" d="m460.1076 224.85564l10.031494 0l0 -43.464554l20.062988 0l0 43.464554l10.031494 0l-20.062988 20.063004z" fill-rule="evenodd"/><path stroke="#000000" stroke-width="1.0" stroke-linejoin="round" stroke-linecap="butt" d="m460.1076 224.85564l10.031494 0l0 -43.464554l20.062988 0l0 43.464554l10.031494 0l-20.062988 20.063004z" fill-rule="evenodd"/><path fill="#000000" fill-opacity="0.0" d="m500.23358 181.39108l229.92126 0l0 64.62991l-229.92126 0z" fill-rule="evenodd"/><path fill="#000000" d="m510.6242 208.31108l0 -13.359375l2.65625 0l3.15625 9.453125q0.4375 1.328125 0.640625 1.984375q0.234375 -0.734375 0.703125 -2.140625l3.203125 -9.296875l2.375 0l0 13.359375l-1.703125 0l0 -11.171875l-3.875 11.171875l-1.59375 0l-3.859375 -11.375l0 11.375l-1.703125 0zm22.009583 -3.109375l1.6875 0.203125q-0.40625 1.484375 -1.484375 2.3125q-1.078125 0.8125 -2.765625 0.8125q-2.125 0 -3.375 -1.296875q-1.234375 -1.3125 -1.234375 -3.671875q0 -2.453125 1.25 -3.796875q1.265625 -1.34375 3.265625 -1.34375q1.9375 0 3.15625 1.328125q1.234375 1.3125 1.234375 3.703125q0 0.15625 0 0.4375l-7.21875 0q0.09375 1.59375 0.90625 2.453125q0.8125 0.84375 2.015625 0.84375q0.90625 0 1.546875 -0.46875q0.640625 -0.484375 1.015625 -1.515625zm-5.390625 -2.65625l5.40625 0q-0.109375 -1.21875 -0.625 -1.828125q-0.78125 -0.953125 -2.03125 -0.953125q-1.125 0 -1.90625 0.765625q-0.765625 0.75 -0.84375 2.015625zm9.125671 5.765625l0 -9.671875l1.46875 0l0 1.46875q0.5625 -1.03125 1.03125 -1.359375q0.484375 -0.328125 1.0625 -0.328125q0.828125 0 1.6875 0.53125l-0.5625 1.515625q-0.609375 -0.359375 -1.203125 -0.359375q-0.546875 0 -0.96875 0.328125q-0.421875 0.328125 -0.609375 0.890625q-0.28125 0.875 -0.28125 1.921875l0 5.0625l-1.625 0zm5.9158325 0.796875l1.59375 0.234375q0.109375 0.75 0.5625 1.078125q0.609375 0.453125 1.671875 0.453125q1.140625 0 1.75 -0.453125q0.625 -0.453125 0.84375 -1.265625q0.125 -0.5 0.109375 -2.109375q-1.0625 1.265625 -2.671875 1.265625q-2.0 0 -3.09375 -1.4375q-1.09375 -1.4375 -1.09375 -3.453125q0 -1.390625 0.5 -2.5625q0.515625 -1.171875 1.453125 -1.796875q0.953125 -0.640625 2.25 -0.640625q1.703125 0 2.8125 1.375l0 -1.15625l1.515625 0l0 8.359375q0 2.265625 -0.46875 3.203125q-0.453125 0.9375 -1.453125 1.484375q-0.984375 0.546875 -2.453125 0.546875q-1.71875 0 -2.796875 -0.78125q-1.0625 -0.765625 -1.03125 -2.34375zm1.359375 -5.8125q0 1.90625 0.75 2.78125q0.765625 0.875 1.90625 0.875q1.125 0 1.890625 -0.859375q0.765625 -0.875 0.765625 -2.734375q0 -1.78125 -0.796875 -2.671875q-0.78125 -0.90625 -1.890625 -0.90625q-1.09375 0 -1.859375 0.890625q-0.765625 0.875 -0.765625 2.625zm9.328857 -6.453125l0 -1.890625l1.640625 0l0 1.890625l-1.640625 0zm0 11.46875l0 -9.671875l1.640625 0l0 9.671875l-1.640625 0zm4.1447754 0l0 -9.671875l1.46875 0l0 1.375q1.0625 -1.59375 3.078125 -1.59375q0.875 0 1.609375 0.3125q0.734375 0.3125 1.09375 0.828125q0.375 0.5 0.515625 1.203125q0.09375 0.453125 0.09375 1.59375l0 5.953125l-1.640625 0l0 -5.890625q0 -1.0 -0.203125 -1.484375q-0.1875 -0.5 -0.671875 -0.796875q-0.484375 -0.296875 -1.140625 -0.296875q-1.046875 0 -1.8125 0.671875q-0.75 0.65625 -0.75 2.515625l0 5.28125l-1.640625 0zm10.063232 0.796875l1.59375 0.234375q0.109375 0.75 0.5625 1.078125q0.609375 0.453125 1.671875 0.453125q1.140625 0 1.75 -0.453125q0.625 -0.453125 0.84375 -1.265625q0.125 -0.5 0.109375 -2.109375q-1.0625 1.265625 -2.671875 1.265625q-2.0 0 -3.09375 -1.4375q-1.09375 -1.4375 -1.09375 -3.453125q0 -1.390625 0.5 -2.5625q0.515625 -1.171875 1.453125 -1.796875q0.953125 -0.640625 2.25 -0.640625q1.703125 0 2.8125 1.375l0 -1.15625l1.515625 0l0 8.359375q0 2.265625 -0.46875 3.203125q-0.453125 0.9375 -1.453125 1.484375q-0.984375 0.546875 -2.453125 0.546875q-1.71875 0 -2.796875 -0.78125q-1.0625 -0.765625 -1.03125 -2.34375zm1.359375 -5.8125q0 1.90625 0.75 2.78125q0.765625 0.875 1.90625 0.875q1.125 0 1.890625 -0.859375q0.765625 -0.875 0.765625 -2.734375q0 -1.78125 -0.796875 -2.671875q-0.78125 -0.90625 -1.890625 -0.90625q-1.09375 0 -1.859375 0.890625q-0.765625 0.875 -0.765625 2.625zm17.199646 5.015625l-3.6875 -9.671875l1.734375 0l2.078125 5.796875q0.328125 0.9375 0.625 1.9375q0.203125 -0.765625 0.609375 -1.828125l2.140625 -5.90625l1.6875 0l-3.65625 9.671875l-1.53125 0zm6.640625 -11.46875l0 -1.890625l1.640625 0l0 1.890625l-1.640625 0zm0 11.46875l0 -9.671875l1.640625 0l0 9.671875l-1.640625 0zm3.4885864 -2.890625l1.625 -0.25q0.125 0.96875 0.75 1.5q0.625 0.515625 1.75 0.515625q1.125 0 1.671875 -0.453125q0.546875 -0.46875 0.546875 -1.09375q0 -0.546875 -0.484375 -0.875q-0.328125 -0.21875 -1.671875 -0.546875q-1.8125 -0.46875 -2.515625 -0.796875q-0.6875 -0.328125 -1.046875 -0.90625q-0.359375 -0.59375 -0.359375 -1.3125q0 -0.640625 0.296875 -1.1875q0.296875 -0.5625 0.8125 -0.921875q0.375 -0.28125 1.03125 -0.46875q0.671875 -0.203125 1.421875 -0.203125q1.140625 0 2.0 0.328125q0.859375 0.328125 1.265625 0.890625q0.421875 0.5625 0.578125 1.5l-1.609375 0.21875q-0.109375 -0.75 -0.640625 -1.171875q-0.515625 -0.421875 -1.46875 -0.421875q-1.140625 0 -1.625 0.375q-0.46875 0.375 -0.46875 0.875q0 0.3125 0.1875 0.578125q0.203125 0.265625 0.640625 0.4375q0.234375 0.09375 1.4375 0.421875q1.75 0.453125 2.4375 0.75q0.6875 0.296875 1.078125 0.859375q0.390625 0.5625 0.390625 1.40625q0 0.828125 -0.484375 1.546875q-0.46875 0.71875 -1.375 1.125q-0.90625 0.390625 -2.046875 0.390625q-1.875 0 -2.875 -0.78125q-0.984375 -0.78125 -1.25 -2.328125zm9.984375 -8.578125l0 -1.890625l1.640625 0l0 1.890625l-1.640625 0zm0 11.46875l0 -9.671875l1.640625 0l0 9.671875l-1.640625 0zm7.7229614 -1.46875l0.234375 1.453125q-0.6875 0.140625 -1.234375 0.140625q-0.890625 0 -1.390625 -0.28125q-0.484375 -0.28125 -0.6875 -0.734375q-0.203125 -0.46875 -0.203125 -1.9375l0 -5.578125l-1.203125 0l0 -1.265625l1.203125 0l0 -2.390625l1.625 -0.984375l0 3.375l1.65625 0l0 1.265625l-1.65625 0l0 5.671875q0 0.6875 0.078125 0.890625q0.09375 0.203125 0.28125 0.328125q0.203125 0.109375 0.578125 0.109375q0.265625 0 0.71875 -0.0625zm0.9489136 -1.421875l1.625 -0.25q0.125 0.96875 0.75 1.5q0.625 0.515625 1.75 0.515625q1.125 0 1.671875 -0.453125q0.546875 -0.46875 0.546875 -1.09375q0 -0.546875 -0.484375 -0.875q-0.328125 -0.21875 -1.671875 -0.546875q-1.8125 -0.46875 -2.515625 -0.796875q-0.6875 -0.328125 -1.046875 -0.90625q-0.359375 -0.59375 -0.359375 -1.3125q0 -0.640625 0.296875 -1.1875q0.296875 -0.5625 0.8125 -0.921875q0.375 -0.28125 1.03125 -0.46875q0.671875 -0.203125 1.421875 -0.203125q1.140625 0 2.0 0.328125q0.859375 0.328125 1.265625 0.890625q0.421875 0.5625 0.578125 1.5l-1.609375 0.21875q-0.109375 -0.75 -0.640625 -1.171875q-0.515625 -0.421875 -1.46875 -0.421875q-1.140625 0 -1.625 0.375q-0.46875 0.375 -0.46875 0.875q0 0.3125 0.1875 0.578125q0.203125 0.265625 0.640625 0.4375q0.234375 0.09375 1.4375 0.421875q1.75 0.453125 2.4375 0.75q0.6875 0.296875 1.078125 0.859375q0.390625 0.5625 0.390625 1.40625q0 0.828125 -0.484375 1.546875q-0.46875 0.71875 -1.375 1.125q-0.90625 0.390625 -2.046875 0.390625q-1.875 0 -2.875 -0.78125q-0.984375 -0.78125 -1.25 -2.328125z" fill-rule="nonzero"/><path fill="#000000" d="m510.46796 219.24232l0 -1.890625l1.640625 0l0 1.890625l-1.640625 0zm0 11.46875l0 -9.671875l1.640625 0l0 9.671875l-1.640625 0zm4.1448364 0l0 -9.671875l1.46875 0l0 1.375q1.0625 -1.59375 3.078125 -1.59375q0.875 0 1.609375 0.3125q0.734375 0.3125 1.09375 0.828125q0.375 0.5 0.515625 1.203125q0.09375 0.453125 0.09375 1.59375l0 5.953125l-1.640625 0l0 -5.890625q0 -1.0 -0.203125 -1.484375q-0.1875 -0.5 -0.671875 -0.796875q-0.484375 -0.296875 -1.140625 -0.296875q-1.046875 0 -1.8125 0.671875q-0.75 0.65625 -0.75 2.515625l0 5.28125l-1.640625 0zm13.953857 -1.46875l0.234375 1.453125q-0.6875 0.140625 -1.234375 0.140625q-0.890625 0 -1.390625 -0.28125q-0.484375 -0.28125 -0.6875 -0.734375q-0.203125 -0.46875 -0.203125 -1.9375l0 -5.578125l-1.203125 0l0 -1.265625l1.203125 0l0 -2.390625l1.625 -0.984375l0 3.375l1.65625 0l0 1.265625l-1.65625 0l0 5.671875q0 0.6875 0.078125 0.890625q0.09375 0.203125 0.28125 0.328125q0.203125 0.109375 0.578125 0.109375q0.265625 0 0.71875 -0.0625zm0.9957886 -3.375q0 -2.6875 1.484375 -3.96875q1.25 -1.078125 3.046875 -1.078125q2.0 0 3.265625 1.3125q1.265625 1.296875 1.265625 3.609375q0 1.859375 -0.5625 2.9375q-0.5625 1.0625 -1.640625 1.65625q-1.0625 0.59375 -2.328125 0.59375q-2.03125 0 -3.28125 -1.296875q-1.25 -1.3125 -1.25 -3.765625zm1.6875 0q0 1.859375 0.796875 2.796875q0.8125 0.921875 2.046875 0.921875q1.21875 0 2.03125 -0.921875q0.8125 -0.9375 0.8125 -2.84375q0 -1.796875 -0.8125 -2.71875q-0.8125 -0.921875 -2.03125 -0.921875q-1.234375 0 -2.046875 0.921875q-0.796875 0.90625 -0.796875 2.765625zm13.824646 1.953125l1.625 -0.25q0.125 0.96875 0.75 1.5q0.625 0.515625 1.75 0.515625q1.125 0 1.671875 -0.453125q0.546875 -0.46875 0.546875 -1.09375q0 -0.546875 -0.484375 -0.875q-0.328125 -0.21875 -1.671875 -0.546875q-1.8125 -0.46875 -2.515625 -0.796875q-0.6875 -0.328125 -1.046875 -0.90625q-0.359375 -0.59375 -0.359375 -1.3125q0 -0.640625 0.296875 -1.1875q0.296875 -0.5625 0.8125 -0.921875q0.375 -0.28125 1.03125 -0.46875q0.671875 -0.203125 1.421875 -0.203125q1.140625 0 2.0 0.328125q0.859375 0.328125 1.265625 0.890625q0.421875 0.5625 0.578125 1.5l-1.609375 0.21875q-0.109375 -0.75 -0.640625 -1.171875q-0.515625 -0.421875 -1.46875 -0.421875q-1.140625 0 -1.625 0.375q-0.46875 0.375 -0.46875 0.875q0 0.3125 0.1875 0.578125q0.203125 0.265625 0.640625 0.4375q0.234375 0.09375 1.4375 0.421875q1.75 0.453125 2.4375 0.75q0.6875 0.296875 1.078125 0.859375q0.390625 0.5625 0.390625 1.40625q0 0.828125 -0.484375 1.546875q-0.46875 0.71875 -1.375 1.125q-0.90625 0.390625 -2.046875 0.390625q-1.875 0 -2.875 -0.78125q-0.984375 -0.78125 -1.25 -2.328125zm13.5625 1.421875l0.234375 1.453125q-0.6875 0.140625 -1.234375 0.140625q-0.890625 0 -1.390625 -0.28125q-0.484375 -0.28125 -0.6875 -0.734375q-0.203125 -0.46875 -0.203125 -1.9375l0 -5.578125l-1.203125 0l0 -1.265625l1.203125 0l0 -2.390625l1.625 -0.984375l0 3.375l1.65625 0l0 1.265625l-1.65625 0l0 5.671875q0 0.6875 0.078125 0.890625q0.09375 0.203125 0.28125 0.328125q0.203125 0.109375 0.578125 0.109375q0.265625 0 0.71875 -0.0625zm7.9176636 0.28125q-0.921875 0.765625 -1.765625 1.09375q-0.828125 0.3125 -1.796875 0.3125q-1.59375 0 -2.453125 -0.78125q-0.859375 -0.78125 -0.859375 -1.984375q0 -0.71875 0.328125 -1.296875q0.328125 -0.59375 0.84375 -0.9375q0.53125 -0.359375 1.1875 -0.546875q0.46875 -0.125 1.453125 -0.25q1.984375 -0.234375 2.921875 -0.5625q0.015625 -0.34375 0.015625 -0.421875q0 -1.0 -0.46875 -1.421875q-0.625 -0.546875 -1.875 -0.546875q-1.15625 0 -1.703125 0.40625q-0.546875 0.40625 -0.8125 1.421875l-1.609375 -0.21875q0.21875 -1.015625 0.71875 -1.640625q0.5 -0.640625 1.453125 -0.984375q0.953125 -0.34375 2.1875 -0.34375q1.25 0 2.015625 0.296875q0.78125 0.28125 1.140625 0.734375q0.375 0.4375 0.515625 1.109375q0.078125 0.421875 0.078125 1.515625l0 2.1875q0 2.28125 0.109375 2.890625q0.109375 0.59375 0.40625 1.15625l-1.703125 0q-0.265625 -0.515625 -0.328125 -1.1875zm-0.140625 -3.671875q-0.890625 0.375 -2.671875 0.625q-1.015625 0.140625 -1.4375 0.328125q-0.421875 0.1875 -0.65625 0.53125q-0.21875 0.34375 -0.21875 0.78125q0 0.65625 0.5 1.09375q0.5 0.4375 1.453125 0.4375q0.9375 0 1.671875 -0.40625q0.75 -0.421875 1.09375 -1.140625q0.265625 -0.5625 0.265625 -1.640625l0 -0.609375zm4.1257324 8.578125l-0.1875 -1.53125q0.546875 0.140625 0.9375 0.140625q0.546875 0 0.875 -0.1875q0.328125 -0.171875 0.546875 -0.5q0.15625 -0.25 0.5 -1.21875q0.046875 -0.140625 0.140625 -0.40625l-3.671875 -9.6875l1.765625 0l2.015625 5.59375q0.390625 1.078125 0.703125 2.25q0.28125 -1.125 0.671875 -2.203125l2.078125 -5.640625l1.640625 0l-3.6875 9.828125q-0.59375 1.609375 -0.921875 2.203125q-0.4375 0.8125 -1.0 1.1875q-0.5625 0.375 -1.34375 0.375q-0.484375 0 -1.0625 -0.203125zm8.75 -6.609375l1.625 -0.25q0.125 0.96875 0.75 1.5q0.625 0.515625 1.75 0.515625q1.125 0 1.671875 -0.453125q0.546875 -0.46875 0.546875 -1.09375q0 -0.546875 -0.484375 -0.875q-0.328125 -0.21875 -1.671875 -0.546875q-1.8125 -0.46875 -2.515625 -0.796875q-0.6875 -0.328125 -1.046875 -0.90625q-0.359375 -0.59375 -0.359375 -1.3125q0 -0.640625 0.296875 -1.1875q0.296875 -0.5625 0.8125 -0.921875q0.375 -0.28125 1.03125 -0.46875q0.671875 -0.203125 1.421875 -0.203125q1.140625 0 2.0 0.328125q0.859375 0.328125 1.265625 0.890625q0.421875 0.5625 0.578125 1.5l-1.609375 0.21875q-0.109375 -0.75 -0.640625 -1.171875q-0.515625 -0.421875 -1.46875 -0.421875q-1.140625 0 -1.625 0.375q-0.46875 0.375 -0.46875 0.875q0 0.3125 0.1875 0.578125q0.203125 0.265625 0.640625 0.4375q0.234375 0.09375 1.4375 0.421875q1.75 0.453125 2.4375 0.75q0.6875 0.296875 1.078125 0.859375q0.390625 0.5625 0.390625 1.40625q0 0.828125 -0.484375 1.546875q-0.46875 0.71875 -1.375 1.125q-0.90625 0.390625 -2.046875 0.390625q-1.875 0 -2.875 -0.78125q-0.984375 -0.78125 -1.25 -2.328125zm10.4375 2.890625l0 -1.875l1.875 0l0 1.875l-1.875 0zm5.1832886 0l0 -1.875l1.875 0l0 1.875l-1.875 0zm5.1832886 0l0 -1.875l1.875 0l0 1.875l-1.875 0z" fill-rule="nonzero"/><path fill="#93c47d" d="m261.2756 342.32547l0 0l0 0c0 -2.0298462 -0.80636597 -3.9765625 -2.2416992 -5.4118958c-1.4353027 -1.4353027 -3.382019 -2.2416687 -5.411865 -2.2416687l-77.07086 0c-4.2269287 0 -7.653534 3.4266052 -7.653534 7.6535645l0 0l0 0c0 4.2269287 3.4266052 7.653534 7.653534 7.653534l77.07086 0l0 0c4.2269287 0 7.6535645 -3.4266052 7.6535645 -7.653534z" fill-rule="evenodd"/><path fill="#93c47d" d="m329.71127 372.44357l0 0l0 0c0 -2.0298462 -0.80633545 -3.9765625 -2.2416687 -5.411865c-1.4353027 -1.4353333 -3.382019 -2.2416687 -5.411865 -2.2416687l-77.07086 0c-4.2269287 0 -7.653549 3.4266052 -7.653549 7.653534l0 0l0 0c0 4.2269287 3.4266205 7.653534 7.653549 7.653534l77.07086 0l0 0c4.2269287 0 7.653534 -3.4266052 7.653534 -7.653534z" fill-rule="evenodd"/><path fill="#f1c232" d="m677.74805 374.01913l0 -3.5763245l0 0c0 -1.5013123 -0.5963745 -2.941101 -1.657959 -4.0026855c-1.0615845 -1.0615845 -2.5014038 -1.657959 -4.0026855 -1.657959l-254.00867 0c-4.113861 0 -7.448822 3.3349304 -7.448822 7.4487915l0 0l0 0c0 4.1138916 3.334961 7.448822 7.448822 7.448822l254.00867 0l0 0c3.1262817 0 5.6606445 -2.5343628 5.6606445 -5.6606445z" fill-rule="evenodd"/><path fill="#f1c232" d="m463.96588 342.32547l0 0l0 0c0 -2.0298462 -0.80636597 -3.9765625 -2.2416687 -5.4118958c-1.4353333 -1.4353027 -3.382019 -2.2416687 -5.411865 -2.2416687l-14.834656 0c-4.2269287 0 -7.653534 3.4266052 -7.653534 7.6535645l0 0l0 0c0 4.2269287 3.4266052 7.653534 7.653534 7.653534l14.834656 0l0 0c4.2269287 0 7.653534 -3.4266052 7.653534 -7.653534z" fill-rule="evenodd"/><path fill="#f1c232" d="m742.2861 342.32547l0 0l0 0c0 -2.0298462 -0.80633545 -3.9765625 -2.2416382 -5.4118958c-1.4353027 -1.4353027 -3.382019 -2.2416687 -5.411865 -2.2416687l-31.811035 0c-4.2269287 0 -7.6535645 3.4266052 -7.6535645 7.6535645l0 0l0 0c0 4.2269287 3.4266357 7.653534 7.6535645 7.653534l31.811035 0l0 0c4.2269287 0 7.6535034 -3.4266052 7.6535034 -7.653534z" fill-rule="evenodd"/><path fill="#8e7cc3" d="m927.69556 372.44357l0 0l0 0c0 -2.0298462 -0.8063965 -3.9765625 -2.2416992 -5.411865c-1.4353027 -1.4353333 -3.382019 -2.2416687 -5.411865 -2.2416687l-77.07086 0c-4.2269287 0 -7.6535645 3.4266052 -7.6535645 7.653534l0 0l0 0c0 4.2269287 3.4266357 7.653534 7.6535645 7.653534l77.07086 0l0 0c4.2269287 0 7.6535645 -3.4266052 7.6535645 -7.653534z" fill-rule="evenodd"/><path fill="#000000" fill-opacity="0.0" d="m150.3517 324.54593l30.141739 0l0 35.55905l-30.141739 0z" fill-rule="evenodd"/><path fill="#000000" d="m164.1017 346.34592l-1.21875 0l0 -8.03125l-2.421875 0.90625l0 -1.09375l3.453125 -1.296875l0.1875 0l0 9.515625z" fill-rule="nonzero"/><path fill="#000000" fill-opacity="0.0" d="m253.27559 324.54593l30.141739 0l0 35.55905l-30.141739 0z" fill-rule="evenodd"/><path fill="#000000" d="m263.61935 341.59592l0.484375 -4.71875l4.84375 0l0 1.109375l-3.828125 0l-0.28125 2.578125q0.6875 -0.40625 1.578125 -0.40625q1.296875 0 2.046875 0.859375q0.765625 0.84375 0.765625 2.3125q0 1.453125 -0.796875 2.296875q-0.78125 0.84375 -2.203125 0.84375q-1.25 0 -2.046875 -0.6875q-0.796875 -0.703125 -0.90625 -1.9375l1.140625 0q0.109375 0.828125 0.578125 1.234375q0.46875 0.40625 1.234375 0.40625q0.84375 0 1.3125 -0.5625q0.484375 -0.578125 0.484375 -1.578125q0 -0.953125 -0.515625 -1.53125q-0.515625 -0.578125 -1.375 -0.578125q-0.78125 0 -1.234375 0.34375l-0.328125 0.265625l-0.953125 -0.25z" fill-rule="nonzero"/><path fill="#000000" fill-opacity="0.0" d="m213.81364 354.45145l30.141739 0l0 35.55905l-30.141739 0z" fill-rule="evenodd"/><path fill="#000000" d="m228.68864 373.06393l1.3125 0l0 0.984375l-1.3125 0l0 2.203125l-1.21875 0l0 -2.203125l-4.3125 0l0 -0.703125l4.25 -6.5625l1.28125 0l0 6.28125zm-4.15625 0l2.9375 0l0 -4.640625l-0.140625 0.265625l-2.796875 4.375z" fill-rule="nonzero"/><path fill="#000000" fill-opacity="0.0" d="m324.40158 354.66403l30.141724 0l0 35.55905l-30.141724 0z" fill-rule="evenodd"/><path fill="#000000" d="m339.93283 369.46405q0 0.703125 -0.375 1.265625q-0.375 0.546875 -1.015625 0.859375q0.75 0.3125 1.171875 0.9375q0.4375 0.609375 0.4375 1.375q0 1.234375 -0.828125 1.96875q-0.828125 0.71875 -2.1875 0.71875q-1.359375 0 -2.1875 -0.71875q-0.8125 -0.734375 -0.8125 -1.96875q0 -0.765625 0.40625 -1.375q0.421875 -0.625 1.171875 -0.9375q-0.640625 -0.3125 -1.0 -0.859375q-0.359375 -0.5625 -0.359375 -1.265625q0 -1.203125 0.765625 -1.90625q0.765625 -0.703125 2.015625 -0.703125q1.25 0 2.015625 0.703125q0.78125 0.703125 0.78125 1.90625zm-0.984375 4.421875q0 -0.796875 -0.5 -1.296875q-0.5 -0.5 -1.3125 -0.5q-0.8125 0 -1.3125 0.5q-0.484375 0.484375 -0.484375 1.296875q0 0.796875 0.46875 1.265625q0.484375 0.453125 1.328125 0.453125q0.859375 0 1.328125 -0.453125q0.484375 -0.46875 0.484375 -1.265625zm-1.8125 -6.03125q-0.703125 0 -1.140625 0.4375q-0.4375 0.4375 -0.4375 1.1875q0 0.71875 0.421875 1.171875q0.4375 0.4375 1.15625 0.4375q0.734375 0 1.15625 -0.4375q0.4375 -0.453125 0.4375 -1.171875q0 -0.71875 -0.453125 -1.171875q-0.4375 -0.453125 -1.140625 -0.453125z" fill-rule="nonzero"/><path fill="#000000" fill-opacity="0.0" d="m379.52756 354.45145l40.125977 0l0 35.55905l-40.125977 0z" fill-rule="evenodd"/><path fill="#000000" d="m393.27756 376.25143l-1.21875 0l0 -8.03125l-2.421875 0.90625l0 -1.09375l3.453125 -1.296875l0.1875 0l0 9.515625zm9.73407 0l-6.21875 0l0 -0.859375l3.28125 -3.65625q0.734375 -0.828125 1.0 -1.34375q0.28125 -0.515625 0.28125 -1.0625q0 -0.75 -0.453125 -1.21875q-0.4375 -0.46875 -1.1875 -0.46875q-0.890625 0 -1.390625 0.515625q-0.5 0.5 -0.5 1.40625l-1.203125 0q0 -1.296875 0.84375 -2.109375q0.84375 -0.8125 2.25 -0.8125q1.328125 0 2.09375 0.703125q0.765625 0.6875 0.765625 1.84375q0 1.390625 -1.78125 3.328125l-2.546875 2.75l4.765625 0l0 0.984375z" fill-rule="nonzero"/><path fill="#000000" fill-opacity="0.0" d="m406.56927 324.54593l40.125977 0l0 35.55905l-40.125977 0z" fill-rule="evenodd"/><path fill="#000000" d="m420.31927 346.34592l-1.21875 0l0 -8.03125l-2.421875 0.90625l0 -1.09375l3.453125 -1.296875l0.1875 0l0 9.515625zm5.26532 -5.328125l0.90625 0q0.859375 -0.015625 1.34375 -0.4375q0.484375 -0.4375 0.484375 -1.1875q0 -1.65625 -1.65625 -1.65625q-0.78125 0 -1.25 0.453125q-0.453125 0.4375 -0.453125 1.171875l-1.203125 0q0 -1.125 0.8125 -1.875q0.828125 -0.75 2.09375 -0.75q1.34375 0 2.09375 0.71875q0.765625 0.703125 0.765625 1.96875q0 0.609375 -0.40625 1.203125q-0.390625 0.578125 -1.078125 0.859375q0.78125 0.25 1.203125 0.828125q0.4375 0.5625 0.4375 1.390625q0 1.28125 -0.84375 2.03125q-0.828125 0.734375 -2.171875 0.734375q-1.328125 0 -2.171875 -0.71875q-0.828125 -0.71875 -0.828125 -1.90625l1.21875 0q0 0.75 0.484375 1.203125q0.484375 0.4375 1.3125 0.4375q0.859375 0 1.328125 -0.453125q0.46875 -0.453125 0.46875 -1.296875q0 -0.828125 -0.515625 -1.265625q-0.5 -0.453125 -1.46875 -0.46875l-0.90625 0l0 -0.984375z" fill-rule="nonzero"/><path fill="#000000" fill-opacity="0.0" d="m464.24915 324.54593l40.126007 0l0 35.55905l-40.126007 0z" fill-rule="evenodd"/><path fill="#000000" d="m477.99915 346.34592l-1.21875 0l0 -8.03125l-2.421875 0.90625l0 -1.09375l3.453125 -1.296875l0.1875 0l0 9.515625zm8.60907 -3.1875l1.3125 0l0 0.984375l-1.3125 0l0 2.203125l-1.21875 0l0 -2.203125l-4.3125 0l0 -0.703125l4.25 -6.5625l1.28125 0l0 6.28125zm-4.15625 0l2.9375 0l0 -4.640625l-0.140625 0.265625l-2.796875 4.375z" fill-rule="nonzero"/><path fill="#000000" fill-opacity="0.0" d="m671.97766 354.45145l48.409485 0l0 35.55905l-48.409485 0z" fill-rule="evenodd"/><path fill="#000000" d="m685.72766 376.25143l-1.21875 0l0 -8.03125l-2.421875 0.90625l0 -1.09375l3.453125 -1.296875l0.1875 0l0 9.515625zm9.26532 -7.0q0 0.703125 -0.375 1.265625q-0.375 0.546875 -1.015625 0.859375q0.75 0.3125 1.171875 0.9375q0.4375 0.609375 0.4375 1.375q0 1.234375 -0.828125 1.96875q-0.828125 0.71875 -2.1875 0.71875q-1.359375 0 -2.1875 -0.71875q-0.8125 -0.734375 -0.8125 -1.96875q0 -0.765625 0.40625 -1.375q0.421875 -0.625 1.171875 -0.9375q-0.640625 -0.3125 -1.0 -0.859375q-0.359375 -0.5625 -0.359375 -1.265625q0 -1.203125 0.765625 -1.90625q0.765625 -0.703125 2.015625 -0.703125q1.25 0 2.015625 0.703125q0.78125 0.703125 0.78125 1.90625zm-0.984375 4.421875q0 -0.796875 -0.5 -1.296875q-0.5 -0.5 -1.3125 -0.5q-0.8125 0 -1.3125 0.5q-0.484375 0.484375 -0.484375 1.296875q0 0.796875 0.46875 1.265625q0.484375 0.453125 1.328125 0.453125q0.859375 0 1.328125 -0.453125q0.484375 -0.46875 0.484375 -1.265625zm-1.8125 -6.03125q-0.703125 0 -1.140625 0.4375q-0.4375 0.4375 -0.4375 1.1875q0 0.71875 0.421875 1.171875q0.4375 0.4375 1.15625 0.4375q0.734375 0 1.15625 -0.4375q0.4375 -0.453125 0.4375 -1.171875q0 -0.71875 -0.453125 -1.171875q-0.4375 -0.453125 -1.140625 -0.453125z" fill-rule="nonzero"/><path fill="#000000" fill-opacity="0.0" d="m664.3163 324.54593l48.409424 0l0 35.55905l-48.409424 0z" fill-rule="evenodd"/><path fill="#000000" d="m678.0663 346.34592l-1.21875 0l0 -8.03125l-2.421875 0.90625l0 -1.09375l3.453125 -1.296875l0.1875 0l0 9.515625zm8.14032 -4.171875q-0.375 0.453125 -0.90625 0.734375q-0.53125 0.265625 -1.15625 0.265625q-0.8125 0 -1.421875 -0.390625q-0.609375 -0.40625 -0.9375 -1.140625q-0.328125 -0.734375 -0.328125 -1.625q0 -0.953125 0.359375 -1.703125q0.359375 -0.765625 1.015625 -1.171875q0.671875 -0.40625 1.546875 -0.40625q1.40625 0 2.21875 1.0625q0.8125 1.046875 0.8125 2.859375l0 0.34375q0 2.765625 -1.09375 4.046875q-1.09375 1.265625 -3.296875 1.296875l-0.234375 0l0 -1.015625l0.25 0q1.5 -0.015625 2.296875 -0.765625q0.796875 -0.75 0.875 -2.390625zm-1.859375 0q0.609375 0 1.109375 -0.359375q0.515625 -0.375 0.75 -0.921875l0 -0.484375q0 -1.1875 -0.515625 -1.921875q-0.515625 -0.75 -1.296875 -0.75q-0.796875 0 -1.28125 0.609375q-0.484375 0.609375 -0.484375 1.609375q0 0.96875 0.46875 1.59375q0.46875 0.625 1.25 0.625z" fill-rule="nonzero"/><path fill="#000000" fill-opacity="0.0" d="m738.8727 324.54593l48.409485 0l0 35.55905l-48.409485 0z" fill-rule="evenodd"/><path fill="#000000" d="m754.8727 346.34592l-6.21875 0l0 -0.859375l3.28125 -3.65625q0.734375 -0.828125 1.0 -1.34375q0.28125 -0.515625 0.28125 -1.0625q0 -0.75 -0.453125 -1.21875q-0.4375 -0.46875 -1.1875 -0.46875q-0.890625 0 -1.390625 0.515625q-0.5 0.5 -0.5 1.40625l-1.203125 0q0 -1.296875 0.84375 -2.109375q0.84375 -0.8125 2.25 -0.8125q1.328125 0 2.09375 0.703125q0.765625 0.6875 0.765625 1.84375q0 1.390625 -1.78125 3.328125l-2.546875 2.75l4.765625 0l0 0.984375zm5.23407 0l-1.21875 0l0 -8.03125l-2.421875 0.90625l0 -1.09375l3.453125 -1.296875l0.1875 0l0 9.515625z" fill-rule="nonzero"/><path fill="#000000" fill-opacity="0.0" d="m805.7677 354.45145l48.409485 0l0 35.55905l-48.409485 0z" fill-rule="evenodd"/><path fill="#000000" d="m821.7677 376.25143l-6.21875 0l0 -0.859375l3.28125 -3.65625q0.734375 -0.828125 1.0 -1.34375q0.28125 -0.515625 0.28125 -1.0625q0 -0.75 -0.453125 -1.21875q-0.4375 -0.46875 -1.1875 -0.46875q-0.890625 0 -1.390625 0.515625q-0.5 0.5 -0.5 1.40625l-1.203125 0q0 -1.296875 0.84375 -2.109375q0.84375 -0.8125 2.25 -0.8125q1.328125 0 2.09375 0.703125q0.765625 0.6875 0.765625 1.84375q0 1.390625 -1.78125 3.328125l-2.546875 2.75l4.765625 0l0 0.984375zm1.8278198 -4.75l0.484375 -4.71875l4.84375 0l0 1.109375l-3.828125 0l-0.28125 2.578125q0.6875 -0.40625 1.578125 -0.40625q1.296875 0 2.046875 0.859375q0.765625 0.84375 0.765625 2.3125q0 1.453125 -0.796875 2.296875q-0.78125 0.84375 -2.203125 0.84375q-1.25 0 -2.046875 -0.6875q-0.796875 -0.703125 -0.90625 -1.9375l1.140625 0q0.109375 0.828125 0.578125 1.234375q0.46875 0.40625 1.234375 0.40625q0.84375 0 1.3125 -0.5625q0.484375 -0.578125 0.484375 -1.578125q0 -0.953125 -0.515625 -1.53125q-0.515625 -0.578125 -1.375 -0.578125q-0.78125 0 -1.234375 0.34375l-0.328125 0.265625l-0.953125 -0.25z" fill-rule="nonzero"/><path fill="#000000" fill-opacity="0.0" d="m919.6942 354.45145l48.409485 0l0 35.55905l-48.409485 0z" fill-rule="evenodd"/><path fill="#000000" d="m935.6942 376.25143l-6.21875 0l0 -0.859375l3.28125 -3.65625q0.734375 -0.828125 1.0 -1.34375q0.28125 -0.515625 0.28125 -1.0625q0 -0.75 -0.453125 -1.21875q-0.4375 -0.46875 -1.1875 -0.46875q-0.890625 0 -1.390625 0.515625q-0.5 0.5 -0.5 1.40625l-1.203125 0q0 -1.296875 0.84375 -2.109375q0.84375 -0.8125 2.25 -0.8125q1.328125 0 2.09375 0.703125q0.765625 0.6875 0.765625 1.84375q0 1.390625 -1.78125 3.328125l-2.546875 2.75l4.765625 0l0 0.984375zm7.39032 -8.796875l-3.921875 8.796875l-1.265625 0l3.90625 -8.484375l-5.125 0l0 -0.984375l6.40625 0l0 0.671875z" fill-rule="nonzero"/><path fill="#cfe2f3" d="m200.01575 305.00262l30.141739 0l0 25.196838l-30.141739 0z" fill-rule="evenodd"/><path stroke="#3c78d8" stroke-width="2.0" stroke-linejoin="round" stroke-linecap="butt" d="m200.01575 305.00262l30.141739 0l0 25.196838l-30.141739 0z" fill-rule="evenodd"/><path fill="#000000" d="m208.9845 324.52106l5.125 -13.359375l1.90625 0l5.46875 13.359375l-2.015625 0l-1.546875 -4.046875l-5.59375 0l-1.46875 4.046875l-1.875 0zm3.859375 -5.484375l4.53125 0l-1.40625 -3.703125q-0.625 -1.6875 -0.9375 -2.765625q-0.265625 1.28125 -0.71875 2.546875l-1.46875 3.921875z" fill-rule="nonzero"/><path fill="#cfe2f3" d="m288.8386 334.6719l30.141724 0l0 25.196869l-30.141724 0z" fill-rule="evenodd"/><path stroke="#3c78d8" stroke-width="2.0" stroke-linejoin="round" stroke-linecap="butt" d="m288.8386 334.6719l30.141724 0l0 25.196869l-30.141724 0z" fill-rule="evenodd"/><path fill="#000000" d="m299.19797 354.19034l0 -13.359375l5.015625 0q1.53125 0 2.453125 0.40625q0.921875 0.40625 1.4375 1.25q0.53125 0.84375 0.53125 1.765625q0 0.859375 -0.46875 1.625q-0.453125 0.75 -1.390625 1.203125q1.203125 0.359375 1.859375 1.21875q0.65625 0.859375 0.65625 2.015625q0 0.9375 -0.40625 1.75q-0.390625 0.796875 -0.984375 1.234375q-0.578125 0.4375 -1.453125 0.671875q-0.875 0.21875 -2.15625 0.21875l-5.09375 0zm1.78125 -7.75l2.875 0q1.1875 0 1.6875 -0.140625q0.671875 -0.203125 1.015625 -0.671875q0.34375 -0.46875 0.34375 -1.171875q0 -0.65625 -0.328125 -1.15625q-0.3125 -0.515625 -0.90625 -0.703125q-0.59375 -0.1875 -2.03125 -0.1875l-2.65625 0l0 4.03125zm0 6.171875l3.3125 0q0.859375 0 1.203125 -0.0625q0.609375 -0.109375 1.015625 -0.359375q0.421875 -0.265625 0.6875 -0.75q0.265625 -0.484375 0.265625 -1.125q0 -0.75 -0.390625 -1.296875q-0.375 -0.546875 -1.0625 -0.765625q-0.671875 -0.234375 -1.953125 -0.234375l-3.078125 0l0 4.59375z" fill-rule="nonzero"/><path fill="#cfe2f3" d="m432.16666 305.00262l30.141754 0l0 25.196838l-30.141754 0z" fill-rule="evenodd"/><path stroke="#3c78d8" stroke-width="2.0" stroke-linejoin="round" stroke-linecap="butt" d="m432.16666 305.00262l30.141754 0l0 25.196838l-30.141754 0z" fill-rule="evenodd"/><path fill="#000000" d="m442.60416 324.52106l0 -13.359375l4.609375 0q1.546875 0 2.375 0.203125q1.140625 0.25 1.953125 0.953125q1.0625 0.890625 1.578125 2.28125q0.53125 1.390625 0.53125 3.171875q0 1.515625 -0.359375 2.703125q-0.359375 1.171875 -0.921875 1.9375q-0.546875 0.765625 -1.203125 1.21875q-0.65625 0.4375 -1.59375 0.671875q-0.9375 0.21875 -2.140625 0.21875l-4.828125 0zm1.765625 -1.578125l2.859375 0q1.3125 0 2.0625 -0.234375q0.75 -0.25 1.203125 -0.703125q0.625 -0.625 0.96875 -1.6875q0.359375 -1.0625 0.359375 -2.578125q0 -2.09375 -0.6875 -3.21875q-0.6875 -1.125 -1.671875 -1.5q-0.703125 -0.28125 -2.28125 -0.28125l-2.8125 0l0 10.203125z" fill-rule="nonzero"/><path fill="#cfe2f3" d="m526.9134 334.6719l30.141724 0l0 25.196869l-30.141724 0z" fill-rule="evenodd"/><path stroke="#3c78d8" stroke-width="2.0" stroke-linejoin="round" stroke-linecap="butt" d="m526.9134 334.6719l30.141724 0l0 25.196869l-30.141724 0z" fill-rule="evenodd"/><path fill="#000000" d="m546.88214 349.50284l1.765625 0.453125q-0.5625 2.171875 -2.0 3.328125q-1.4375 1.140625 -3.53125 1.140625q-2.15625 0 -3.515625 -0.875q-1.34375 -0.890625 -2.0625 -2.546875q-0.703125 -1.671875 -0.703125 -3.59375q0 -2.078125 0.796875 -3.625q0.796875 -1.5625 2.265625 -2.359375q1.484375 -0.8125 3.25 -0.8125q2.0 0 3.359375 1.015625q1.375 1.015625 1.90625 2.875l-1.734375 0.40625q-0.46875 -1.453125 -1.359375 -2.109375q-0.875 -0.671875 -2.203125 -0.671875q-1.546875 0 -2.578125 0.734375q-1.03125 0.734375 -1.453125 1.984375q-0.421875 1.234375 -0.421875 2.5625q0 1.703125 0.5 2.96875q0.5 1.265625 1.546875 1.90625q1.046875 0.625 2.265625 0.625q1.484375 0 2.515625 -0.859375q1.03125 -0.859375 1.390625 -2.546875z" fill-rule="nonzero"/><path fill="#cfe2f3" d="m703.65485 305.00262l30.141724 0l0 25.196838l-30.141724 0z" fill-rule="evenodd"/><path stroke="#3c78d8" stroke-width="2.0" stroke-linejoin="round" stroke-linecap="butt" d="m703.65485 305.00262l30.141724 0l0 25.196838l-30.141724 0z" fill-rule="evenodd"/><path fill="#000000" d="m714.1236 324.52106l0 -13.359375l9.65625 0l0 1.578125l-7.875 0l0 4.09375l7.375 0l0 1.5625l-7.375 0l0 4.546875l8.1875 0l0 1.578125l-9.96875 0z" fill-rule="nonzero"/><path fill="#cfe2f3" d="m866.4344 334.6719l30.141724 0l0 25.196869l-30.141724 0z" fill-rule="evenodd"/><path stroke="#3c78d8" stroke-width="2.0" stroke-linejoin="round" stroke-linecap="butt" d="m866.4344 334.6719l30.141724 0l0 25.196869l-30.141724 0z" fill-rule="evenodd"/><path fill="#000000" d="m877.3385 354.19034l0 -13.359375l9.015625 0l0 1.578125l-7.25 0l0 4.140625l6.265625 0l0 1.578125l-6.265625 0l0 6.0625l-1.765625 0z" fill-rule="nonzero"/><path fill="#000000" fill-opacity="0.0" d="m147.30971 226.53806l202.67717 0l0 163.46457l-202.67717 0z" fill-rule="evenodd"/><path stroke="#93c47d" stroke-width="2.0" stroke-linejoin="round" stroke-linecap="butt" d="m147.30971 226.53806l202.67717 0l0 163.46457l-202.67717 0z" fill-rule="evenodd"/><path fill="#000000" d="m210.96008 249.1143l2.625 -0.25q0.234375 1.3125 0.953125 1.9375q0.734375 0.609375 1.96875 0.609375q1.296875 0 1.953125 -0.546875q0.671875 -0.546875 0.671875 -1.28125q0 -0.484375 -0.28125 -0.8125q-0.28125 -0.328125 -0.96875 -0.578125q-0.484375 -0.15625 -2.171875 -0.578125q-2.15625 -0.546875 -3.03125 -1.328125q-1.234375 -1.09375 -1.234375 -2.6875q0 -1.015625 0.578125 -1.90625q0.578125 -0.890625 1.65625 -1.34375q1.09375 -0.46875 2.640625 -0.46875q2.515625 0 3.78125 1.109375q1.28125 1.09375 1.34375 2.9375l-2.703125 0.109375q-0.171875 -1.03125 -0.75 -1.46875q-0.5625 -0.453125 -1.703125 -0.453125q-1.171875 0 -1.84375 0.46875q-0.421875 0.3125 -0.421875 0.84375q0 0.46875 0.40625 0.796875q0.5 0.4375 2.46875 0.90625q1.96875 0.453125 2.90625 0.953125q0.953125 0.5 1.484375 1.359375q0.53125 0.859375 0.53125 2.125q0 1.15625 -0.640625 2.15625q-0.640625 1.0 -1.8125 1.484375q-1.15625 0.484375 -2.890625 0.484375q-2.53125 0 -3.890625 -1.171875q-1.359375 -1.171875 -1.625 -3.40625zm17.552948 -5.328125l0 2.03125l-1.75 0l0 3.90625q0 1.1875 0.046875 1.390625q0.046875 0.1875 0.21875 0.3125q0.1875 0.125 0.4375 0.125q0.359375 0 1.03125 -0.25l0.21875 2.0q-0.890625 0.375 -2.015625 0.375q-0.703125 0 -1.265625 -0.234375q-0.546875 -0.234375 -0.8125 -0.59375q-0.25 -0.375 -0.34375 -1.0q-0.09375 -0.453125 -0.09375 -1.8125l0 -4.21875l-1.171875 0l0 -2.03125l1.171875 0l0 -1.921875l2.578125 -1.5l0 3.421875l1.75 0zm3.681427 2.953125l-2.328125 -0.421875q0.40625 -1.40625 1.359375 -2.078125q0.953125 -0.671875 2.84375 -0.671875q1.703125 0 2.546875 0.40625q0.84375 0.40625 1.171875 1.03125q0.34375 0.625 0.34375 2.28125l-0.015625 3.0q0 1.265625 0.109375 1.875q0.125 0.609375 0.46875 1.296875l-2.53125 0q-0.109375 -0.25 -0.25 -0.75q-0.0625 -0.234375 -0.09375 -0.3125q-0.65625 0.640625 -1.40625 0.96875q-0.734375 0.3125 -1.59375 0.3125q-1.484375 0 -2.34375 -0.8125q-0.859375 -0.8125 -0.859375 -2.046875q0 -0.828125 0.390625 -1.46875q0.390625 -0.640625 1.09375 -0.96875q0.703125 -0.34375 2.03125 -0.609375q1.796875 -0.328125 2.484375 -0.625l0 -0.25q0 -0.75 -0.359375 -1.0625q-0.359375 -0.3125 -1.375 -0.3125q-0.6875 0 -1.078125 0.28125q-0.375 0.265625 -0.609375 0.9375zm3.421875 2.078125q-0.484375 0.15625 -1.5625 0.390625q-1.0625 0.21875 -1.390625 0.4375q-0.5 0.359375 -0.5 0.90625q0 0.53125 0.40625 0.9375q0.40625 0.390625 1.015625 0.390625q0.703125 0 1.328125 -0.46875q0.46875 -0.34375 0.609375 -0.84375q0.09375 -0.328125 0.09375 -1.25l0 -0.5zm3.8288422 -5.03125l2.71875 0l2.328125 6.859375l2.25 -6.859375l2.65625 0l-3.421875 9.3125l-0.609375 1.6875q-0.328125 0.84375 -0.640625 1.2812653q-0.3125 0.453125 -0.703125 0.71875q-0.390625 0.28125 -0.96875 0.4375q-0.578125 0.15625 -1.3125 0.15625q-0.734375 0 -1.453125 -0.15625l-0.21875 -2.0000153q0.59375 0.125 1.078125 0.125q0.890625 0 1.3125 -0.53125q0.4375 -0.515625 0.671875 -1.328125l-3.6875 -9.703125zm19.19963 1.734375l-2.5625 0l0 -1.84375q0 -1.109375 0.1875 -1.75q0.203125 -0.640625 0.734375 -1.140625q0.53125 -0.515625 1.34375 -0.8125l0.5 1.0625q-0.765625 0.25 -1.09375 0.703125q-0.328125 0.453125 -0.359375 1.21875l1.25 0l0 2.5625zm4.265625 0l-2.5625 0l0 -1.84375q0 -1.109375 0.1875 -1.75q0.203125 -0.640625 0.734375 -1.140625q0.546875 -0.515625 1.359375 -0.8125l0.5 1.0625q-0.765625 0.25 -1.109375 0.703125q-0.328125 0.453125 -0.34375 1.21875l1.234375 0l0 2.5625zm14.7031555 7.9375l-2.9375305 0l-1.171875 -3.03125l-5.328125 0l-1.109375 3.03125l-2.859375 0l5.203125 -13.359375l2.84375 0l5.3594055 13.359375zm-4.9687805 -5.28125l-1.84375 -4.953125l-1.796875 4.953125l3.640625 0zm10.504211 -8.078125l2.5625 0l0 1.84375q0 1.109375 -0.203125 1.75q-0.1875 0.640625 -0.734375 1.15625q-0.53125 0.515625 -1.34375 0.796875l-0.5 -1.0625q0.765625 -0.25 1.09375 -0.703125q0.34375 -0.453125 0.359375 -1.21875l-1.234375 0l0 -2.5625zm-4.296875 0l2.546875 0l0 1.84375q0 1.109375 -0.1875 1.75q-0.1875 0.640625 -0.71875 1.15625q-0.53125 0.515625 -1.359375 0.796875l-0.5 -1.0625q0.78125 -0.25 1.109375 -0.703125q0.328125 -0.453125 0.34375 -1.21875l-1.234375 0l0 -2.5625z" fill-rule="nonzero"/><path fill="#000000" fill-opacity="0.0" d="m381.25986 254.77428l397.03934 0l0 135.2441l-397.03934 0z" fill-rule="evenodd"/><path stroke="#f1c232" stroke-width="2.0" stroke-linejoin="round" stroke-linecap="butt" d="m381.25986 254.77428l397.03934 0l0 135.2441l-397.03934 0z" fill-rule="evenodd"/><path fill="#000000" d="m542.0913 277.35052l2.625 -0.25q0.234375 1.3125 0.953125 1.9375q0.734375 0.609375 1.96875 0.609375q1.296875 0 1.953125 -0.546875q0.671875 -0.546875 0.671875 -1.28125q0 -0.484375 -0.28125 -0.8125q-0.28125 -0.328125 -0.96875 -0.578125q-0.484375 -0.15625 -2.171875 -0.578125q-2.15625 -0.546875 -3.03125 -1.328125q-1.234375 -1.09375 -1.234375 -2.6875q0 -1.015625 0.578125 -1.90625q0.578125 -0.890625 1.65625 -1.34375q1.09375 -0.46875 2.640625 -0.46875q2.515625 0 3.78125 1.109375q1.28125 1.09375 1.34375 2.9375l-2.703125 0.109375q-0.171875 -1.03125 -0.75 -1.46875q-0.5625 -0.453125 -1.703125 -0.453125q-1.171875 0 -1.84375 0.46875q-0.421875 0.3125 -0.421875 0.84375q0 0.46875 0.40625 0.796875q0.5 0.4375 2.46875 0.90625q1.96875 0.453125 2.90625 0.953125q0.953125 0.5 1.484375 1.359375q0.53125 0.859375 0.53125 2.125q0 1.15625 -0.640625 2.15625q-0.640625 1.0 -1.8125 1.484375q-1.15625 0.484375 -2.890625 0.484375q-2.53125 0 -3.890625 -1.171875q-1.359375 -1.171875 -1.625 -3.40625zm17.552979 -5.328125l0 2.03125l-1.75 0l0 3.90625q0 1.1875 0.046875 1.390625q0.046875 0.1875 0.21875 0.3125q0.1875 0.125 0.4375 0.125q0.359375 0 1.03125 -0.25l0.21875 2.0q-0.890625 0.375 -2.015625 0.375q-0.703125 0 -1.265625 -0.234375q-0.546875 -0.234375 -0.8125 -0.59375q-0.25 -0.375 -0.34375 -1.0q-0.09375 -0.453125 -0.09375 -1.8125l0 -4.21875l-1.171875 0l0 -2.03125l1.171875 0l0 -1.921875l2.578125 -1.5l0 3.421875l1.75 0zm3.6813965 2.953125l-2.328125 -0.421875q0.40625 -1.40625 1.359375 -2.078125q0.953125 -0.671875 2.84375 -0.671875q1.703125 0 2.546875 0.40625q0.84375 0.40625 1.171875 1.03125q0.34375 0.625 0.34375 2.28125l-0.015625 3.0q0 1.265625 0.109375 1.875q0.125 0.609375 0.46875 1.296875l-2.53125 0q-0.109375 -0.25 -0.25 -0.75q-0.0625 -0.234375 -0.09375 -0.3125q-0.65625 0.640625 -1.40625 0.96875q-0.734375 0.3125 -1.59375 0.3125q-1.484375 0 -2.34375 -0.8125q-0.859375 -0.8125 -0.859375 -2.046875q0 -0.828125 0.390625 -1.46875q0.390625 -0.640625 1.09375 -0.96875q0.703125 -0.34375 2.03125 -0.609375q1.796875 -0.328125 2.484375 -0.625l0 -0.25q0 -0.75 -0.359375 -1.0625q-0.359375 -0.3125 -1.375 -0.3125q-0.6875 0 -1.078125 0.28125q-0.375 0.265625 -0.609375 0.9375zm3.421875 2.078125q-0.484375 0.15625 -1.5625 0.390625q-1.0625 0.21875 -1.390625 0.4375q-0.5 0.359375 -0.5 0.90625q0 0.53125 0.40625 0.9375q0.40625 0.390625 1.015625 0.390625q0.703125 0 1.328125 -0.46875q0.46875 -0.34375 0.609375 -0.84375q0.09375 -0.328125 0.09375 -1.25l0 -0.5zm3.8288574 -5.03125l2.71875 0l2.328125 6.859375l2.25 -6.859375l2.65625 0l-3.421875 9.3125l-0.609375 1.6875q-0.328125 0.84375 -0.640625 1.28125q-0.3125 0.453125 -0.703125 0.71875q-0.390625 0.28125 -0.96875 0.4375q-0.578125 0.15625 -1.3125 0.15625q-0.734375 0 -1.453125 -0.15625l-0.21875 -2.0q0.59375 0.125 1.078125 0.125q0.890625 0 1.3125 -0.53125q0.4375 -0.515625 0.671875 -1.328125l-3.6875 -9.703125zm19.199646 1.734375l-2.5625 0l0 -1.84375q0 -1.109375 0.1875 -1.75q0.203125 -0.640625 0.734375 -1.140625q0.53125 -0.515625 1.34375 -0.8125l0.5 1.0625q-0.765625 0.25 -1.09375 0.703125q-0.328125 0.453125 -0.359375 1.21875l1.25 0l0 2.5625zm4.265625 0l-2.5625 0l0 -1.84375q0 -1.109375 0.1875 -1.75q0.203125 -0.640625 0.734375 -1.140625q0.546875 -0.515625 1.359375 -0.8125l0.5 1.0625q-0.765625 0.25 -1.109375 0.703125q-0.328125 0.453125 -0.34375 1.21875l1.234375 0l0 2.5625zm11.203125 3.03125l2.609375 0.828125q-0.59375 2.1875 -2.0 3.25q-1.390625 1.0625 -3.546875 1.0625q-2.65625 0 -4.375 -1.8125q-1.703125 -1.828125 -1.703125 -4.984375q0 -3.328125 1.71875 -5.171875q1.71875 -1.84375 4.515625 -1.84375q2.453125 0 3.984375 1.4375q0.921875 0.859375 1.375 2.46875l-2.671875 0.640625q-0.234375 -1.046875 -0.984375 -1.640625q-0.75 -0.609375 -1.828125 -0.609375q-1.484375 0 -2.421875 1.078125q-0.921875 1.0625 -0.921875 3.4375q0 2.53125 0.90625 3.609375q0.921875 1.078125 2.375 1.078125q1.078125 0 1.84375 -0.671875q0.78125 -0.6875 1.125 -2.15625zm9.035461 -8.453125l2.5625 0l0 1.84375q0 1.109375 -0.203125 1.75q-0.1875 0.640625 -0.734375 1.15625q-0.53125 0.515625 -1.34375 0.796875l-0.5 -1.0625q0.765625 -0.25 1.09375 -0.703125q0.34375 -0.453125 0.359375 -1.21875l-1.234375 0l0 -2.5625zm-4.296875 0l2.546875 0l0 1.84375q0 1.109375 -0.1875 1.75q-0.1875 0.640625 -0.71875 1.15625q-0.53125 0.515625 -1.359375 0.796875l-0.5 -1.0625q0.78125 -0.25 1.109375 -0.703125q0.328125 -0.453125 0.34375 -1.21875l-1.234375 0l0 -2.5625z" fill-rule="nonzero"/><path fill="#000000" fill-opacity="0.0" d="m805.76904 255.93176l148.31494 0l0 135.24408l-148.31494 0z" fill-rule="evenodd"/><path stroke="#a64d79" stroke-width="2.0" stroke-linejoin="round" stroke-linecap="butt" d="m805.76904 255.93176l148.31494 0l0 135.24408l-148.31494 0z" fill-rule="evenodd"/><path fill="#000000" d="m843.2768 278.508l2.625 -0.25q0.234375 1.3125 0.953125 1.9375q0.734375 0.609375 1.96875 0.609375q1.296875 0 1.953125 -0.546875q0.671875 -0.546875 0.671875 -1.28125q0 -0.484375 -0.28125 -0.8125q-0.28125 -0.328125 -0.96875 -0.578125q-0.484375 -0.15625 -2.171875 -0.578125q-2.15625 -0.546875 -3.03125 -1.328125q-1.234375 -1.09375 -1.234375 -2.6875q0 -1.015625 0.578125 -1.90625q0.578125 -0.890625 1.65625 -1.34375q1.09375 -0.46875 2.640625 -0.46875q2.515625 0 3.78125 1.109375q1.28125 1.09375 1.34375 2.9375l-2.703125 0.109375q-0.171875 -1.03125 -0.75 -1.46875q-0.5625 -0.453125 -1.703125 -0.453125q-1.171875 0 -1.84375 0.46875q-0.421875 0.3125 -0.421875 0.84375q0 0.46875 0.40625 0.796875q0.5 0.4375 2.46875 0.90625q1.96875 0.453125 2.90625 0.953125q0.953125 0.5 1.484375 1.359375q0.53125 0.859375 0.53125 2.125q0 1.15625 -0.640625 2.15625q-0.640625 1.0 -1.8125 1.484375q-1.15625 0.484375 -2.890625 0.484375q-2.53125 0 -3.890625 -1.171875q-1.359375 -1.171875 -1.625 -3.40625zm17.552917 -5.328125l0 2.03125l-1.75 0l0 3.90625q0 1.1875 0.046875 1.390625q0.046875 0.1875 0.21875 0.3125q0.1875 0.125 0.4375 0.125q0.359375 0 1.03125 -0.25l0.21875 2.0q-0.890625 0.375 -2.015625 0.375q-0.703125 0 -1.265625 -0.234375q-0.546875 -0.234375 -0.8125 -0.59375q-0.25 -0.375 -0.34375 -1.0q-0.09375 -0.453125 -0.09375 -1.8125l0 -4.21875l-1.171875 0l0 -2.03125l1.171875 0l0 -1.921875l2.578125 -1.5l0 3.421875l1.75 0zm3.6814575 2.953125l-2.328125 -0.421875q0.40625 -1.40625 1.359375 -2.078125q0.953125 -0.671875 2.84375 -0.671875q1.703125 0 2.546875 0.40625q0.84375 0.40625 1.171875 1.03125q0.34375 0.625 0.34375 2.28125l-0.015625 3.0q0 1.265625 0.109375 1.875q0.125 0.609375 0.46875 1.296875l-2.53125 0q-0.109375 -0.25 -0.25 -0.75q-0.0625 -0.234375 -0.09375 -0.3125q-0.65625 0.640625 -1.40625 0.96875q-0.734375 0.3125 -1.59375 0.3125q-1.484375 0 -2.34375 -0.8125q-0.859375 -0.8125 -0.859375 -2.046875q0 -0.828125 0.390625 -1.46875q0.390625 -0.640625 1.09375 -0.96875q0.703125 -0.34375 2.03125 -0.609375q1.796875 -0.328125 2.484375 -0.625l0 -0.25q0 -0.75 -0.359375 -1.0625q-0.359375 -0.3125 -1.375 -0.3125q-0.6875 0 -1.078125 0.28125q-0.375 0.265625 -0.609375 0.9375zm3.421875 2.078125q-0.484375 0.15625 -1.5625 0.390625q-1.0625 0.21875 -1.390625 0.4375q-0.5 0.359375 -0.5 0.90625q0 0.53125 0.40625 0.9375q0.40625 0.390625 1.015625 0.390625q0.703125 0 1.328125 -0.46875q0.46875 -0.34375 0.609375 -0.84375q0.09375 -0.328125 0.09375 -1.25l0 -0.5zm3.8287964 -5.03125l2.71875 0l2.328125 6.859375l2.25 -6.859375l2.65625 0l-3.421875 9.3125l-0.609375 1.6875q-0.328125 0.84375 -0.640625 1.28125q-0.3125 0.453125 -0.703125 0.71875q-0.390625 0.28125 -0.96875 0.4375q-0.578125 0.15625 -1.3125 0.15625q-0.734375 0 -1.453125 -0.15625l-0.21875 -2.0q0.59375 0.125 1.078125 0.125q0.890625 0 1.3125 -0.53125q0.4375 -0.515625 0.671875 -1.328125l-3.6875 -9.703125zm19.199646 1.734375l-2.5625 0l0 -1.84375q0 -1.109375 0.1875 -1.75q0.203125 -0.640625 0.734375 -1.140625q0.53125 -0.515625 1.34375 -0.8125l0.5 1.0625q-0.765625 0.25 -1.09375 0.703125q-0.328125 0.453125 -0.359375 1.21875l1.25 0l0 2.5625zm4.265625 0l-2.5625 0l0 -1.84375q0 -1.109375 0.1875 -1.75q0.203125 -0.640625 0.734375 -1.140625q0.546875 -0.515625 1.359375 -0.8125l0.5 1.0625q-0.765625 0.25 -1.109375 0.703125q-0.328125 0.453125 -0.34375 1.21875l1.234375 0l0 2.5625zm2.671875 7.9375l0 -13.359375l9.15625 0l0 2.265625l-6.453125 0l0 3.15625l5.5625 0l0 2.265625l-5.5625 0l0 5.671875l-2.703125 0zm15.489746 -13.359375l2.5625 0l0 1.84375q0 1.109375 -0.203125 1.75q-0.1875 0.640625 -0.734375 1.15625q-0.53125 0.515625 -1.34375 0.796875l-0.5 -1.0625q0.765625 -0.25 1.09375 -0.703125q0.34375 -0.453125 0.359375 -1.21875l-1.234375 0l0 -2.5625zm-4.296875 0l2.546875 0l0 1.84375q0 1.109375 -0.1875 1.75q-0.1875 0.640625 -0.71875 1.15625q-0.53125 0.515625 -1.359375 0.796875l-0.5 -1.0625q0.78125 -0.25 1.109375 -0.703125q0.328125 -0.453125 0.34375 -1.21875l-1.234375 0l0 -2.5625z" fill-rule="nonzero"/><path fill="#6d9eeb" d="m261.2756 46.32546l0 0l0 0c0 -2.0298462 -0.80636597 -3.9765549 -2.2416992 -5.411873c-1.4353027 -1.435318 -3.382019 -2.2416687 -5.411865 -2.2416687l-77.07086 0c-4.2269287 0 -7.653534 3.4266052 -7.653534 7.6535416l0 0l0 0c0 4.2269363 3.4266052 7.6535454 7.653534 7.6535454l77.07086 0l0 0c4.2269287 0 7.6535645 -3.426609 7.6535645 -7.6535454z" fill-rule="evenodd"/><path fill="#6d9eeb" d="m329.71127 76.44357l0 0l0 0c0 -2.0298462 -0.80633545 -3.9765549 -2.2416687 -5.411873c-1.4353027 -1.435318 -3.382019 -2.2416763 -5.411865 -2.2416763l-77.07086 0c-4.2269287 0 -7.653549 3.4266129 -7.653549 7.653549l0 0l0 0c0 4.2269287 3.4266205 7.6535416 7.653549 7.6535416l77.07086 0l0 0c4.2269287 0 7.653534 -3.4266129 7.653534 -7.6535416z" fill-rule="evenodd"/><path fill="#6d9eeb" d="m677.74805 78.019135l0 -3.5763245l0 0c0 -1.5013046 -0.5963745 -2.9411087 -1.657959 -4.002693c-1.0615845 -1.0615768 -2.5014038 -1.6579666 -4.0026855 -1.6579666l-254.00867 0c-4.113861 0 -7.448822 3.3349533 -7.448822 7.448822l0 0l0 0c0 4.1138687 3.334961 7.4488144 7.448822 7.4488144l254.00867 0l0 0c3.1262817 0 5.6606445 -2.5343552 5.6606445 -5.660652z" fill-rule="evenodd"/><path fill="#6d9eeb" d="m463.96588 46.32546l0 0l0 0c0 -2.0298462 -0.80636597 -3.9765549 -2.2416687 -5.411873c-1.4353333 -1.435318 -3.382019 -2.2416687 -5.411865 -2.2416687l-14.834656 0c-4.2269287 0 -7.653534 3.4266052 -7.653534 7.6535416l0 0l0 0c0 4.2269363 3.4266052 7.6535454 7.653534 7.6535454l14.834656 0l0 0c4.2269287 0 7.653534 -3.426609 7.653534 -7.6535454z" fill-rule="evenodd"/><path fill="#6d9eeb" d="m742.2861 46.32546l0 0l0 0c0 -2.0298462 -0.80633545 -3.9765549 -2.2416382 -5.411873c-1.4353027 -1.435318 -3.382019 -2.2416687 -5.411865 -2.2416687l-31.811035 0c-4.2269287 0 -7.6535645 3.4266052 -7.6535645 7.6535416l0 0l0 0c0 4.2269363 3.4266357 7.6535454 7.6535645 7.6535454l31.811035 0l0 0c4.2269287 0 7.6535034 -3.426609 7.6535034 -7.6535454z" fill-rule="evenodd"/><path fill="#6d9eeb" d="m927.69556 76.44357l0 0l0 0c0 -2.0298462 -0.8063965 -3.9765549 -2.2416992 -5.411873c-1.4353027 -1.435318 -3.382019 -2.2416763 -5.411865 -2.2416763l-77.07086 0c-4.2269287 0 -7.6535645 3.4266129 -7.6535645 7.653549l0 0l0 0c0 4.2269287 3.4266357 7.6535416 7.6535645 7.6535416l77.07086 0l0 0c4.2269287 0 7.6535645 -3.4266129 7.6535645 -7.6535416z" fill-rule="evenodd"/><path fill="#000000" fill-opacity="0.0" d="m150.3517 28.54593l30.141739 0l0 35.55906l-30.141739 0z" fill-rule="evenodd"/><path fill="#000000" d="m164.1017 50.345932l-1.21875 0l0 -8.03125l-2.421875 0.90625l0 -1.09375l3.453125 -1.296875l0.1875 0l0 9.515625z" fill-rule="nonzero"/><path fill="#000000" fill-opacity="0.0" d="m253.27559 28.54593l30.141739 0l0 35.55906l-30.141739 0z" fill-rule="evenodd"/><path fill="#000000" d="m263.61935 45.595932l0.484375 -4.71875l4.84375 0l0 1.109375l-3.828125 0l-0.28125 2.578125q0.6875 -0.40625 1.578125 -0.40625q1.296875 0 2.046875 0.859375q0.765625 0.84375 0.765625 2.3125q0 1.453125 -0.796875 2.296875q-0.78125 0.84375 -2.203125 0.84375q-1.25 0 -2.046875 -0.6875q-0.796875 -0.703125 -0.90625 -1.9375l1.140625 0q0.109375 0.828125 0.578125 1.234375q0.46875 0.40625 1.234375 0.40625q0.84375 0 1.3125 -0.5625q0.484375 -0.578125 0.484375 -1.578125q0 -0.953125 -0.515625 -1.53125q-0.515625 -0.578125 -1.375 -0.578125q-0.78125 0 -1.234375 0.34375l-0.328125 0.265625l-0.953125 -0.25z" fill-rule="nonzero"/><path fill="#000000" fill-opacity="0.0" d="m213.81364 58.451443l30.141739 0l0 35.559055l-30.141739 0z" fill-rule="evenodd"/><path fill="#000000" d="m228.68864 77.06394l1.3125 0l0 0.984375l-1.3125 0l0 2.203125l-1.21875 0l0 -2.203125l-4.3125 0l0 -0.703125l4.25 -6.5625l1.28125 0l0 6.28125zm-4.15625 0l2.9375 0l0 -4.640625l-0.140625 0.265625l-2.796875 4.375z" fill-rule="nonzero"/><path fill="#000000" fill-opacity="0.0" d="m324.40158 58.664043l30.141724 0l0 35.559055l-30.141724 0z" fill-rule="evenodd"/><path fill="#000000" d="m339.93283 73.46404q0 0.703125 -0.375 1.265625q-0.375 0.546875 -1.015625 0.859375q0.75 0.3125 1.171875 0.9375q0.4375 0.609375 0.4375 1.375q0 1.234375 -0.828125 1.96875q-0.828125 0.71875 -2.1875 0.71875q-1.359375 0 -2.1875 -0.71875q-0.8125 -0.734375 -0.8125 -1.96875q0 -0.765625 0.40625 -1.375q0.421875 -0.625 1.171875 -0.9375q-0.640625 -0.3125 -1.0 -0.859375q-0.359375 -0.5625 -0.359375 -1.265625q0 -1.203125 0.765625 -1.90625q0.765625 -0.703125 2.015625 -0.703125q1.25 0 2.015625 0.703125q0.78125 0.703125 0.78125 1.90625zm-0.984375 4.421875q0 -0.796875 -0.5 -1.296875q-0.5 -0.5 -1.3125 -0.5q-0.8125 0 -1.3125 0.5q-0.484375 0.484375 -0.484375 1.296875q0 0.796875 0.46875 1.265625q0.484375 0.453125 1.328125 0.453125q0.859375 0 1.328125 -0.453125q0.484375 -0.46875 0.484375 -1.265625zm-1.8125 -6.03125q-0.703125 0 -1.140625 0.4375q-0.4375 0.4375 -0.4375 1.1875q0 0.71875 0.421875 1.171875q0.4375 0.4375 1.15625 0.4375q0.734375 0 1.15625 -0.4375q0.4375 -0.453125 0.4375 -1.171875q0 -0.71875 -0.453125 -1.171875q-0.4375 -0.453125 -1.140625 -0.453125z" fill-rule="nonzero"/><path fill="#000000" fill-opacity="0.0" d="m379.52756 58.451443l40.125977 0l0 35.559055l-40.125977 0z" fill-rule="evenodd"/><path fill="#000000" d="m393.27756 80.25144l-1.21875 0l0 -8.03125l-2.421875 0.90625l0 -1.09375l3.453125 -1.296875l0.1875 0l0 9.515625zm9.73407 0l-6.21875 0l0 -0.859375l3.28125 -3.65625q0.734375 -0.828125 1.0 -1.34375q0.28125 -0.515625 0.28125 -1.0625q0 -0.75 -0.453125 -1.21875q-0.4375 -0.46875 -1.1875 -0.46875q-0.890625 0 -1.390625 0.515625q-0.5 0.5 -0.5 1.40625l-1.203125 0q0 -1.296875 0.84375 -2.109375q0.84375 -0.8125 2.25 -0.8125q1.328125 0 2.09375 0.703125q0.765625 0.6875 0.765625 1.84375q0 1.390625 -1.78125 3.328125l-2.546875 2.75l4.765625 0l0 0.984375z" fill-rule="nonzero"/><path fill="#000000" fill-opacity="0.0" d="m406.56824 28.54593l48.409454 0l0 35.55906l-48.409454 0z" fill-rule="evenodd"/><path fill="#000000" d="m420.31824 50.345932l-1.21875 0l0 -8.03125l-2.421875 0.90625l0 -1.09375l3.453125 -1.296875l0.1875 0l0 9.515625zm5.26532 -5.328125l0.90625 0q0.859375 -0.015625 1.34375 -0.4375q0.484375 -0.4375 0.484375 -1.1875q0 -1.65625 -1.65625 -1.65625q-0.78125 0 -1.25 0.453125q-0.453125 0.4375 -0.453125 1.171875l-1.203125 0q0 -1.125 0.8125 -1.875q0.828125 -0.75 2.09375 -0.75q1.34375 0 2.09375 0.71875q0.765625 0.703125 0.765625 1.96875q0 0.609375 -0.40625 1.203125q-0.390625 0.578125 -1.078125 0.859375q0.78125 0.25 1.203125 0.828125q0.4375 0.5625 0.4375 1.390625q0 1.28125 -0.84375 2.03125q-0.828125 0.734375 -2.171875 0.734375q-1.328125 0 -2.171875 -0.71875q-0.828125 -0.71875 -0.828125 -1.90625l1.21875 0q0 0.75 0.484375 1.203125q0.484375 0.4375 1.3125 0.4375q0.859375 0 1.328125 -0.453125q0.46875 -0.453125 0.46875 -1.296875q0 -0.828125 -0.515625 -1.265625q-0.5 -0.453125 -1.46875 -0.46875l-0.90625 0l0 -0.984375z" fill-rule="nonzero"/><path fill="#000000" fill-opacity="0.0" d="m455.96457 28.54593l48.409454 0l0 35.55906l-48.409454 0z" fill-rule="evenodd"/><path fill="#000000" d="m469.71457 50.345932l-1.21875 0l0 -8.03125l-2.421875 0.90625l0 -1.09375l3.453125 -1.296875l0.1875 0l0 9.515625zm8.609039 -3.1875l1.3125 0l0 0.984375l-1.3125 0l0 2.203125l-1.21875 0l0 -2.203125l-4.3125 0l0 -0.703125l4.25 -6.5625l1.28125 0l0 6.28125zm-4.15625 0l2.9375 0l0 -4.640625l-0.140625 0.265625l-2.796875 4.375z" fill-rule="nonzero"/><path fill="#000000" fill-opacity="0.0" d="m671.97766 58.451443l48.409485 0l0 35.559055l-48.409485 0z" fill-rule="evenodd"/><path fill="#000000" d="m685.72766 80.25144l-1.21875 0l0 -8.03125l-2.421875 0.90625l0 -1.09375l3.453125 -1.296875l0.1875 0l0 9.515625zm9.26532 -7.0q0 0.703125 -0.375 1.265625q-0.375 0.546875 -1.015625 0.859375q0.75 0.3125 1.171875 0.9375q0.4375 0.609375 0.4375 1.375q0 1.234375 -0.828125 1.96875q-0.828125 0.71875 -2.1875 0.71875q-1.359375 0 -2.1875 -0.71875q-0.8125 -0.734375 -0.8125 -1.96875q0 -0.765625 0.40625 -1.375q0.421875 -0.625 1.171875 -0.9375q-0.640625 -0.3125 -1.0 -0.859375q-0.359375 -0.5625 -0.359375 -1.265625q0 -1.203125 0.765625 -1.90625q0.765625 -0.703125 2.015625 -0.703125q1.25 0 2.015625 0.703125q0.78125 0.703125 0.78125 1.90625zm-0.984375 4.421875q0 -0.796875 -0.5 -1.296875q-0.5 -0.5 -1.3125 -0.5q-0.8125 0 -1.3125 0.5q-0.484375 0.484375 -0.484375 1.296875q0 0.796875 0.46875 1.265625q0.484375 0.453125 1.328125 0.453125q0.859375 0 1.328125 -0.453125q0.484375 -0.46875 0.484375 -1.265625zm-1.8125 -6.03125q-0.703125 0 -1.140625 0.4375q-0.4375 0.4375 -0.4375 1.1875q0 0.71875 0.421875 1.171875q0.4375 0.4375 1.15625 0.4375q0.734375 0 1.15625 -0.4375q0.4375 -0.453125 0.4375 -1.171875q0 -0.71875 -0.453125 -1.171875q-0.4375 -0.453125 -1.140625 -0.453125z" fill-rule="nonzero"/><path fill="#000000" fill-opacity="0.0" d="m664.3163 28.54593l48.409424 0l0 35.55906l-48.409424 0z" fill-rule="evenodd"/><path fill="#000000" d="m678.0663 50.345932l-1.21875 0l0 -8.03125l-2.421875 0.90625l0 -1.09375l3.453125 -1.296875l0.1875 0l0 9.515625zm8.14032 -4.171875q-0.375 0.453125 -0.90625 0.734375q-0.53125 0.265625 -1.15625 0.265625q-0.8125 0 -1.421875 -0.390625q-0.609375 -0.40625 -0.9375 -1.140625q-0.328125 -0.734375 -0.328125 -1.625q0 -0.953125 0.359375 -1.703125q0.359375 -0.765625 1.015625 -1.171875q0.671875 -0.40625 1.546875 -0.40625q1.40625 0 2.21875 1.0625q0.8125 1.046875 0.8125 2.859375l0 0.34375q0 2.765625 -1.09375 4.046875q-1.09375 1.265625 -3.296875 1.296875l-0.234375 0l0 -1.015625l0.25 0q1.5 -0.015625 2.296875 -0.765625q0.796875 -0.75 0.875 -2.390625zm-1.859375 0q0.609375 0 1.109375 -0.359375q0.515625 -0.375 0.75 -0.921875l0 -0.484375q0 -1.1875 -0.515625 -1.921875q-0.515625 -0.75 -1.296875 -0.75q-0.796875 0 -1.28125 0.609375q-0.484375 0.609375 -0.484375 1.609375q0 0.96875 0.46875 1.59375q0.46875 0.625 1.25 0.625z" fill-rule="nonzero"/><path fill="#000000" fill-opacity="0.0" d="m738.8727 28.54593l48.409485 0l0 35.55906l-48.409485 0z" fill-rule="evenodd"/><path fill="#000000" d="m754.8727 50.345932l-6.21875 0l0 -0.859375l3.28125 -3.65625q0.734375 -0.828125 1.0 -1.34375q0.28125 -0.515625 0.28125 -1.0625q0 -0.75 -0.453125 -1.21875q-0.4375 -0.46875 -1.1875 -0.46875q-0.890625 0 -1.390625 0.515625q-0.5 0.5 -0.5 1.40625l-1.203125 0q0 -1.296875 0.84375 -2.109375q0.84375 -0.8125 2.25 -0.8125q1.328125 0 2.09375 0.703125q0.765625 0.6875 0.765625 1.84375q0 1.390625 -1.78125 3.328125l-2.546875 2.75l4.765625 0l0 0.984375zm5.23407 0l-1.21875 0l0 -8.03125l-2.421875 0.90625l0 -1.09375l3.453125 -1.296875l0.1875 0l0 9.515625z" fill-rule="nonzero"/><path fill="#000000" fill-opacity="0.0" d="m805.7677 58.451443l48.409485 0l0 35.559055l-48.409485 0z" fill-rule="evenodd"/><path fill="#000000" d="m821.7677 80.25144l-6.21875 0l0 -0.859375l3.28125 -3.65625q0.734375 -0.828125 1.0 -1.34375q0.28125 -0.515625 0.28125 -1.0625q0 -0.75 -0.453125 -1.21875q-0.4375 -0.46875 -1.1875 -0.46875q-0.890625 0 -1.390625 0.515625q-0.5 0.5 -0.5 1.40625l-1.203125 0q0 -1.296875 0.84375 -2.109375q0.84375 -0.8125 2.25 -0.8125q1.328125 0 2.09375 0.703125q0.765625 0.6875 0.765625 1.84375q0 1.390625 -1.78125 3.328125l-2.546875 2.75l4.765625 0l0 0.984375zm1.8278198 -4.75l0.484375 -4.71875l4.84375 0l0 1.109375l-3.828125 0l-0.28125 2.578125q0.6875 -0.40625 1.578125 -0.40625q1.296875 0 2.046875 0.859375q0.765625 0.84375 0.765625 2.3125q0 1.453125 -0.796875 2.296875q-0.78125 0.84375 -2.203125 0.84375q-1.25 0 -2.046875 -0.6875q-0.796875 -0.703125 -0.90625 -1.9375l1.140625 0q0.109375 0.828125 0.578125 1.234375q0.46875 0.40625 1.234375 0.40625q0.84375 0 1.3125 -0.5625q0.484375 -0.578125 0.484375 -1.578125q0 -0.953125 -0.515625 -1.53125q-0.515625 -0.578125 -1.375 -0.578125q-0.78125 0 -1.234375 0.34375l-0.328125 0.265625l-0.953125 -0.25z" fill-rule="nonzero"/><path fill="#000000" fill-opacity="0.0" d="m919.6942 58.451443l48.409485 0l0 35.559055l-48.409485 0z" fill-rule="evenodd"/><path fill="#000000" d="m935.6942 80.25144l-6.21875 0l0 -0.859375l3.28125 -3.65625q0.734375 -0.828125 1.0 -1.34375q0.28125 -0.515625 0.28125 -1.0625q0 -0.75 -0.453125 -1.21875q-0.4375 -0.46875 -1.1875 -0.46875q-0.890625 0 -1.390625 0.515625q-0.5 0.5 -0.5 1.40625l-1.203125 0q0 -1.296875 0.84375 -2.109375q0.84375 -0.8125 2.25 -0.8125q1.328125 0 2.09375 0.703125q0.765625 0.6875 0.765625 1.84375q0 1.390625 -1.78125 3.328125l-2.546875 2.75l4.765625 0l0 0.984375zm7.39032 -8.796875l-3.921875 8.796875l-1.265625 0l3.90625 -8.484375l-5.125 0l0 -0.984375l6.40625 0l0 0.671875z" fill-rule="nonzero"/><path fill="#cfe2f3" d="m200.01575 9.0026245l30.141739 0l0 25.19685l-30.141739 0z" fill-rule="evenodd"/><path stroke="#3c78d8" stroke-width="2.0" stroke-linejoin="round" stroke-linecap="butt" d="m200.01575 9.0026245l30.141739 0l0 25.19685l-30.141739 0z" fill-rule="evenodd"/><path fill="#000000" d="m208.9845 28.521048l5.125 -13.359375l1.90625 0l5.46875 13.359375l-2.015625 0l-1.546875 -4.046875l-5.59375 0l-1.46875 4.046875l-1.875 0zm3.859375 -5.484375l4.53125 0l-1.40625 -3.703125q-0.625 -1.6875 -0.9375 -2.765625q-0.265625 1.28125 -0.71875 2.546875l-1.46875 3.921875z" fill-rule="nonzero"/><path fill="#cfe2f3" d="m288.8386 38.671917l30.141724 0l0 25.19685l-30.141724 0z" fill-rule="evenodd"/><path stroke="#3c78d8" stroke-width="2.0" stroke-linejoin="round" stroke-linecap="butt" d="m288.8386 38.671917l30.141724 0l0 25.19685l-30.141724 0z" fill-rule="evenodd"/><path fill="#000000" d="m299.19797 58.19034l0 -13.359375l5.015625 0q1.53125 0 2.453125 0.40625q0.921875 0.40625 1.4375 1.25q0.53125 0.84375 0.53125 1.765625q0 0.859375 -0.46875 1.625q-0.453125 0.75 -1.390625 1.203125q1.203125 0.359375 1.859375 1.21875q0.65625 0.859375 0.65625 2.015625q0 0.9375 -0.40625 1.75q-0.390625 0.796875 -0.984375 1.234375q-0.578125 0.4375 -1.453125 0.671875q-0.875 0.21875 -2.15625 0.21875l-5.09375 0zm1.78125 -7.75l2.875 0q1.1875 0 1.6875 -0.140625q0.671875 -0.203125 1.015625 -0.671875q0.34375 -0.46875 0.34375 -1.171875q0 -0.65625 -0.328125 -1.15625q-0.3125 -0.515625 -0.90625 -0.703125q-0.59375 -0.1875 -2.03125 -0.1875l-2.65625 0l0 4.03125zm0 6.171875l3.3125 0q0.859375 0 1.203125 -0.0625q0.609375 -0.109375 1.015625 -0.359375q0.421875 -0.265625 0.6875 -0.75q0.265625 -0.484375 0.265625 -1.125q0 -0.75 -0.390625 -1.296875q-0.375 -0.546875 -1.0625 -0.765625q-0.671875 -0.234375 -1.953125 -0.234375l-3.078125 0l0 4.59375z" fill-rule="nonzero"/><path fill="#cfe2f3" d="m432.16666 9.0026245l30.141754 0l0 25.19685l-30.141754 0z" fill-rule="evenodd"/><path stroke="#3c78d8" stroke-width="2.0" stroke-linejoin="round" stroke-linecap="butt" d="m432.16666 9.0026245l30.141754 0l0 25.19685l-30.141754 0z" fill-rule="evenodd"/><path fill="#000000" d="m442.60416 28.521048l0 -13.359375l4.609375 0q1.546875 0 2.375 0.203125q1.140625 0.25 1.953125 0.953125q1.0625 0.890625 1.578125 2.28125q0.53125 1.390625 0.53125 3.171875q0 1.515625 -0.359375 2.703125q-0.359375 1.171875 -0.921875 1.9375q-0.546875 0.765625 -1.203125 1.21875q-0.65625 0.4375 -1.59375 0.671875q-0.9375 0.21875 -2.140625 0.21875l-4.828125 0zm1.765625 -1.578125l2.859375 0q1.3125 0 2.0625 -0.234375q0.75 -0.25 1.203125 -0.703125q0.625 -0.625 0.96875 -1.6875q0.359375 -1.0625 0.359375 -2.578125q0 -2.09375 -0.6875 -3.21875q-0.6875 -1.125 -1.671875 -1.5q-0.703125 -0.28125 -2.28125 -0.28125l-2.8125 0l0 10.203125z" fill-rule="nonzero"/><path fill="#cfe2f3" d="m526.9134 38.671917l30.141724 0l0 25.19685l-30.141724 0z" fill-rule="evenodd"/><path stroke="#3c78d8" stroke-width="2.0" stroke-linejoin="round" stroke-linecap="butt" d="m526.9134 38.671917l30.141724 0l0 25.19685l-30.141724 0z" fill-rule="evenodd"/><path fill="#000000" d="m546.88214 53.50284l1.765625 0.453125q-0.5625 2.171875 -2.0 3.328125q-1.4375 1.140625 -3.53125 1.140625q-2.15625 0 -3.515625 -0.875q-1.34375 -0.890625 -2.0625 -2.546875q-0.703125 -1.671875 -0.703125 -3.59375q0 -2.078125 0.796875 -3.625q0.796875 -1.5625 2.265625 -2.359375q1.484375 -0.8125 3.25 -0.8125q2.0 0 3.359375 1.015625q1.375 1.015625 1.90625 2.875l-1.734375 0.40625q-0.46875 -1.453125 -1.359375 -2.109375q-0.875 -0.671875 -2.203125 -0.671875q-1.546875 0 -2.578125 0.734375q-1.03125 0.734375 -1.453125 1.984375q-0.421875 1.234375 -0.421875 2.5625q0 1.703125 0.5 2.96875q0.5 1.265625 1.546875 1.90625q1.046875 0.625 2.265625 0.625q1.484375 0 2.515625 -0.859375q1.03125 -0.859375 1.390625 -2.546875z" fill-rule="nonzero"/><path fill="#cfe2f3" d="m703.65485 9.0026245l30.141724 0l0 25.19685l-30.141724 0z" fill-rule="evenodd"/><path stroke="#3c78d8" stroke-width="2.0" stroke-linejoin="round" stroke-linecap="butt" d="m703.65485 9.0026245l30.141724 0l0 25.19685l-30.141724 0z" fill-rule="evenodd"/><path fill="#000000" d="m714.1236 28.521048l0 -13.359375l9.65625 0l0 1.578125l-7.875 0l0 4.09375l7.375 0l0 1.5625l-7.375 0l0 4.546875l8.1875 0l0 1.578125l-9.96875 0z" fill-rule="nonzero"/><path fill="#cfe2f3" d="m866.4344 38.671917l30.141724 0l0 25.19685l-30.141724 0z" fill-rule="evenodd"/><path stroke="#3c78d8" stroke-width="2.0" stroke-linejoin="round" stroke-linecap="butt" d="m866.4344 38.671917l30.141724 0l0 25.19685l-30.141724 0z" fill-rule="evenodd"/><path fill="#000000" d="m877.3385 58.19034l0 -13.359375l9.015625 0l0 1.578125l-7.25 0l0 4.140625l6.265625 0l0 1.578125l-6.265625 0l0 6.0625l-1.765625 0z" fill-rule="nonzero"/><path fill="#e06666" d="m67.66404 440.53543l0 0l0 0c0 -1.9755554 -0.7847824 -3.8701782 -2.1817093 -5.2671204c-1.3969193 -1.3969116 -3.2915573 -2.1817017 -5.267109 -2.1817017l-43.02362 0c-4.1138687 0 -7.448818 3.334961 -7.448818 7.448822l0 0l0 0c0 4.113861 3.3349495 7.448822 7.448818 7.448822l43.02362 0l0 0c4.1138725 0 7.448818 -3.334961 7.448818 -7.448822z" fill-rule="evenodd"/><path fill="#e06666" d="m91.74803 440.77167l0 -0.47244263l0 0c0 -1.9129028 -0.7598953 -3.747467 -2.1125183 -5.1000977c-1.3526306 -1.3526306 -3.1871796 -2.1125183 -5.1000824 -2.1125183l0 0l0 0c-3.983406 0 -7.212593 3.229187 -7.212593 7.212616l0 0.47244263c0 3.9833984 3.229187 7.2125854 7.212593 7.2125854l0 0l0 0c3.9834137 0 7.2126007 -3.229187 7.2126007 -7.2125854z" fill-rule="evenodd"/><path fill="#e06666" d="m115.83202 440.77167l0 -0.47244263l0 0c0 -1.9129028 -0.75990295 -3.747467 -2.112526 -5.1000977c-1.352623 -1.3526306 -3.187172 -2.1125183 -5.100075 -2.1125183l0 0l0 0c-3.983406 0 -7.2126007 3.229187 -7.2126007 7.212616l0 0.47244263c0 3.9833984 3.2291946 7.2125854 7.2126007 7.2125854l0 0l0 0c3.983406 0 7.2126007 -3.229187 7.2126007 -7.2125854z" fill-rule="evenodd"/><path fill="#e06666" d="m139.91602 440.77167l0 -0.47244263l0 0c0 -1.9129028 -0.75990295 -3.747467 -2.1125336 -5.1000977c-1.3526154 -1.3526306 -3.1871643 -2.1125183 -5.100067 -2.1125183l0 0l0 0c-3.9834137 0 -7.2126007 3.229187 -7.2126007 7.212616l0 0.47244263c0 3.9833984 3.229187 7.2125854 7.2126007 7.2125854l0 0l0 0c3.9833984 0 7.2126007 -3.229187 7.2126007 -7.2125854z" fill-rule="evenodd"/><path fill="#e06666" d="m164.0 440.77167l0 -0.47244263l0 0c0 -1.9129028 -0.75990295 -3.747467 -2.1125183 -5.1000977c-1.3526306 -1.3526306 -3.1871796 -2.1125183 -5.1000824 -2.1125183l0 0l0 0c-3.9833984 0 -7.2126007 3.229187 -7.2126007 7.212616l0 0.47244263c0 3.9833984 3.2292023 7.2125854 7.2126007 7.2125854l0 0l0 0c3.9834137 0 7.2126007 -3.229187 7.2126007 -7.2125854z" fill-rule="evenodd"/><path fill="#e06666" d="m873.3779 440.53543l0 0l0 0c0 -1.9755554 -0.78479004 -3.8701782 -2.1817017 -5.2671204c-1.3969116 -1.3969116 -3.291565 -2.1817017 -5.26709 -2.1817017l-684.8189 0c-4.113861 0 -7.448807 3.334961 -7.448807 7.448822l0 0l0 0c0 4.113861 3.3349457 7.448822 7.448807 7.448822l684.8189 0l0 0c4.1138916 0 7.4487915 -3.334961 7.4487915 -7.448822z" fill-rule="evenodd"/><path fill="#e06666" d="m895.853 440.77167l0 -0.47244263l0 0c0 -1.9129028 -0.7598877 -3.747467 -2.1125488 -5.1000977c-1.3526001 -1.3526306 -3.1871338 -2.1125183 -5.1000366 -2.1125183l0 0l0 0c-3.9834595 0 -7.2126465 3.229187 -7.2126465 7.212616l0 0.47244263c0 3.9833984 3.229187 7.2125854 7.2126465 7.2125854l0 0l0 0c3.9833984 0 7.2125854 -3.229187 7.2125854 -7.2125854z" fill-rule="evenodd"/><path fill="#e06666" d="m919.937 440.77167l0 -0.47244263l0 0c0 -1.9129028 -0.7598877 -3.747467 -2.1125488 -5.1000977c-1.3526001 -1.3526306 -3.1871338 -2.1125183 -5.1000366 -2.1125183l0 0l0 0c-3.9833984 0 -7.2125854 3.229187 -7.2125854 7.212616l0 0.47244263c0 3.9833984 3.229187 7.2125854 7.2125854 7.2125854l0 0l0 0c3.9833984 0 7.2125854 -3.229187 7.2125854 -7.2125854z" fill-rule="evenodd"/><path fill="#e06666" d="m944.021 440.77167l0 -0.47244263l0 0c0 -1.9129028 -0.7598877 -3.747467 -2.1125488 -5.1000977c-1.3526001 -1.3526306 -3.1871338 -2.1125183 -5.1000366 -2.1125183l0 0l0 0c-3.9833984 0 -7.2125854 3.229187 -7.2125854 7.212616l0 0.47244263c0 3.9833984 3.229187 7.2125854 7.2125854 7.2125854l0 0l0 0c3.9833984 0 7.2125854 -3.229187 7.2125854 -7.2125854z" fill-rule="evenodd"/><path fill="#cfe2f3" d="m23.631233 403.01837l30.141731 0l0 25.196838l-30.141731 0z" fill-rule="evenodd"/><path stroke="#3c78d8" stroke-width="2.0" stroke-linejoin="round" stroke-linecap="butt" d="m23.631233 403.01837l30.141731 0l0 25.196838l-30.141731 0z" fill-rule="evenodd"/><path fill="#000000" d="m40.318733 417.30243l0 -1.578125l5.65625 0l0 4.953125q-1.296875 1.046875 -2.6875 1.578125q-1.375 0.515625 -2.84375 0.515625q-1.96875 0 -3.578125 -0.84375q-1.609375 -0.84375 -2.421875 -2.4375q-0.8125 -1.59375 -0.8125 -3.5625q0 -1.953125 0.8125 -3.640625q0.8125 -1.6875 2.34375 -2.5q1.53125 -0.828125 3.515625 -0.828125q1.453125 0 2.625 0.46875q1.171875 0.46875 1.828125 1.3125q0.671875 0.828125 1.015625 2.171875l-1.59375 0.4375q-0.296875 -1.015625 -0.75 -1.59375q-0.4375 -0.59375 -1.265625 -0.9375q-0.828125 -0.34375 -1.84375 -0.34375q-1.203125 0 -2.09375 0.375q-0.890625 0.359375 -1.4375 0.96875q-0.53125 0.59375 -0.828125 1.3125q-0.515625 1.234375 -0.515625 2.6875q0 1.78125 0.609375 2.984375q0.625 1.203125 1.796875 1.796875q1.171875 0.578125 2.5 0.578125q1.140625 0 2.234375 -0.4375q1.09375 -0.453125 1.65625 -0.953125l0 -2.484375l-3.921875 0z" fill-rule="nonzero"/><path fill="#000000" fill-opacity="0.0" d="m4.11811 394.5092l946.4567 0l0 95.93701l-946.4567 0z" fill-rule="evenodd"/><path stroke="#e06666" stroke-width="2.0" stroke-linejoin="round" stroke-linecap="butt" d="m4.11811 394.5092l946.4567 0l0 95.93701l-946.4567 0z" fill-rule="evenodd"/><path fill="#000000" d="m439.13898 473.02243l2.625 -0.25q0.234375 1.3125 0.953125 1.9375q0.734375 0.609375 1.96875 0.609375q1.296875 0 1.953125 -0.546875q0.671875 -0.546875 0.671875 -1.28125q0 -0.484375 -0.28125 -0.8125q-0.28125 -0.328125 -0.96875 -0.578125q-0.484375 -0.15625 -2.171875 -0.578125q-2.15625 -0.546875 -3.03125 -1.328125q-1.234375 -1.09375 -1.234375 -2.6875q0 -1.015625 0.578125 -1.90625q0.578125 -0.890625 1.65625 -1.34375q1.09375 -0.46875 2.640625 -0.46875q2.515625 0 3.78125 1.109375q1.28125 1.09375 1.34375 2.9375l-2.703125 0.109375q-0.171875 -1.03125 -0.75 -1.46875q-0.5625 -0.453125 -1.703125 -0.453125q-1.171875 0 -1.84375 0.46875q-0.421875 0.3125 -0.421875 0.84375q0 0.46875 0.40625 0.796875q0.5 0.4375 2.46875 0.90625q1.96875 0.453125 2.90625 0.953125q0.953125 0.5 1.484375 1.359375q0.53125 0.859375 0.53125 2.125q0 1.15625 -0.640625 2.15625q-0.640625 1.0 -1.8125 1.484375q-1.15625 0.484375 -2.890625 0.484375q-2.53125 0 -3.890625 -1.171875q-1.359375 -1.171875 -1.625 -3.40625zm17.552948 -5.328125l0 2.03125l-1.75 0l0 3.90625q0 1.1875 0.046875 1.390625q0.046875 0.1875 0.21875 0.3125q0.1875 0.125 0.4375 0.125q0.359375 0 1.03125 -0.25l0.21875 2.0q-0.890625 0.375 -2.015625 0.375q-0.703125 0 -1.265625 -0.234375q-0.546875 -0.234375 -0.8125 -0.59375q-0.25 -0.375 -0.34375 -1.0q-0.09375 -0.453125 -0.09375 -1.8125l0 -4.21875l-1.171875 0l0 -2.03125l1.171875 0l0 -1.921875l2.578125 -1.5l0 3.421875l1.75 0zm3.681427 2.953125l-2.328125 -0.421875q0.40625 -1.40625 1.359375 -2.078125q0.953125 -0.671875 2.84375 -0.671875q1.703125 0 2.546875 0.40625q0.84375 0.40625 1.171875 1.03125q0.34375 0.625 0.34375 2.28125l-0.015625 3.0q0 1.265625 0.109375 1.875q0.125 0.609375 0.46875 1.296875l-2.53125 0q-0.109375 -0.25 -0.25 -0.75q-0.0625 -0.234375 -0.09375 -0.3125q-0.65625 0.640625 -1.40625 0.96875q-0.734375 0.3125 -1.59375 0.3125q-1.484375 0 -2.34375 -0.8125q-0.859375 -0.8125 -0.859375 -2.046875q0 -0.828125 0.390625 -1.46875q0.390625 -0.640625 1.09375 -0.96875q0.703125 -0.34375 2.03125 -0.609375q1.796875 -0.328125 2.484375 -0.625l0 -0.25q0 -0.75 -0.359375 -1.0625q-0.359375 -0.3125 -1.375 -0.3125q-0.6875 0 -1.078125 0.28125q-0.375 0.265625 -0.609375 0.9375zm3.421875 2.078125q-0.484375 0.15625 -1.5625 0.390625q-1.0625 0.21875 -1.390625 0.4375q-0.5 0.359375 -0.5 0.90625q0 0.53125 0.40625 0.9375q0.40625 0.390625 1.015625 0.390625q0.703125 0 1.328125 -0.46875q0.46875 -0.34375 0.609375 -0.84375q0.09375 -0.328125 0.09375 -1.25l0 -0.5zm3.8288574 -5.03125l2.71875 0l2.328125 6.859375l2.25 -6.859375l2.65625 0l-3.421875 9.3125l-0.609375 1.6875q-0.328125 0.84375 -0.640625 1.28125q-0.3125 0.453125 -0.703125 0.71875q-0.390625 0.28125 -0.96875 0.4375q-0.578125 0.15625 -1.3125 0.15625q-0.734375 0 -1.453125 -0.15625l-0.21875 -2.0q0.59375 0.125 1.078125 0.125q0.890625 0 1.3125 -0.53125q0.4375 -0.515625 0.671875 -1.328125l-3.6875 -9.703125zm19.199646 1.734375l-2.5625 0l0 -1.84375q0 -1.109375 0.1875 -1.75q0.203125 -0.640625 0.734375 -1.140625q0.53125 -0.515625 1.34375 -0.8125l0.5 1.0625q-0.765625 0.25 -1.09375 0.703125q-0.328125 0.453125 -0.359375 1.21875l1.25 0l0 2.5625zm4.265625 0l-2.5625 0l0 -1.84375q0 -1.109375 0.1875 -1.75q0.203125 -0.640625 0.734375 -1.140625q0.546875 -0.515625 1.359375 -0.8125l0.5 1.0625q-0.765625 0.25 -1.109375 0.703125q-0.328125 0.453125 -0.34375 1.21875l1.234375 0l0 2.5625zm8.859375 3.03125l0 -2.25l5.8125 0l0 5.3125q-0.84375 0.828125 -2.453125 1.453125q-1.609375 0.625 -3.25 0.625q-2.09375 0 -3.65625 -0.875q-1.5625 -0.890625 -2.34375 -2.515625q-0.78125 -1.640625 -0.78125 -3.5625q0 -2.09375 0.875 -3.703125q0.875 -1.625 2.5625 -2.5q1.28125 -0.65625 3.203125 -0.65625q2.484375 0 3.875 1.046875q1.40625 1.03125 1.796875 2.875l-2.671875 0.5q-0.28125 -0.984375 -1.0625 -1.546875q-0.78125 -0.578125 -1.9375 -0.578125q-1.78125 0 -2.828125 1.125q-1.03125 1.125 -1.03125 3.328125q0 2.375 1.046875 3.5625q1.0625 1.1875 2.78125 1.1875q0.84375 0 1.6875 -0.328125q0.859375 -0.328125 1.46875 -0.8125l0 -1.6875l-3.09375 0zm12.417664 -8.453125l2.5625 0l0 1.84375q0 1.109375 -0.203125 1.75q-0.1875 0.640625 -0.734375 1.15625q-0.53125 0.515625 -1.34375 0.796875l-0.5 -1.0625q0.765625 -0.25 1.09375 -0.703125q0.34375 -0.453125 0.359375 -1.21875l-1.234375 0l0 -2.5625zm-4.296875 0l2.546875 0l0 1.84375q0 1.109375 -0.1875 1.75q-0.1875 0.640625 -0.71875 1.15625q-0.53125 0.515625 -1.359375 0.796875l-0.5 -1.0625q0.78125 -0.25 1.109375 -0.703125q0.328125 -0.453125 0.34375 -1.21875l-1.234375 0l0 -2.5625z" fill-rule="nonzero"/><path fill="#000000" fill-opacity="0.0" d="m164.03674 504.32022l786.5512 -3.0236206" fill-rule="evenodd"/><path stroke="#000000" stroke-width="4.0" stroke-linejoin="round" stroke-linecap="butt" d="m164.03674 504.32022l762.55133 -2.931366" fill-rule="evenodd"/><path fill="#000000" stroke="#000000" stroke-width="4.0" stroke-linecap="butt" d="m926.6135 507.99573l18.126831 -6.6766663l-18.177673 -6.5371094z" fill-rule="evenodd"/><path fill="#000000" fill-opacity="0.0" d="m143.86876 504.32022l-66.55117 0" fill-rule="evenodd"/><path stroke="#000000" stroke-width="4.0" stroke-linejoin="round" stroke-linecap="butt" stroke-dasharray="4.0,12.0" d="m143.86876 504.32022l-66.55117 0" fill-rule="evenodd"/><path fill="#000000" fill-opacity="0.0" d="m9.753281 504.32022l48.40945 0" fill-rule="evenodd"/><path stroke="#000000" stroke-width="4.0" stroke-linejoin="round" stroke-linecap="butt" d="m9.753281 504.32022l48.40945 0" fill-rule="evenodd"/><path fill="#000000" fill-opacity="0.0" d="m9.753281 508.84778l92.37795 0l0 35.55902l-92.37795 0z" fill-rule="evenodd"/><path fill="#000000" d="m25.75328 530.64777l-6.21875 0l0 -0.859375l3.28125 -3.65625q0.734375 -0.828125 1.0 -1.34375q0.28125 -0.515625 0.28125 -1.0625q0 -0.75 -0.453125 -1.21875q-0.4375 -0.46875 -1.1875 -0.46875q-0.890625 0 -1.390625 0.515625q-0.5 0.5 -0.5 1.40625l-1.203125 0q0 -1.296875 0.84375 -2.109375q0.84375 -0.8125 2.25 -0.8125q1.328125 0 2.09375 0.703125q0.765625 0.6875 0.765625 1.84375q0 1.390625 -1.78125 3.328125l-2.546875 2.75l4.765625 0l0 0.984375zm7.2184296 -4.046875q0 2.125 -0.734375 3.15625q-0.71875 1.015625 -2.25 1.015625q-1.515625 0 -2.25 -1.0q-0.71875 -1.0 -0.75 -3.0l0 -1.609375q0 -2.09375 0.71875 -3.109375q0.71875 -1.015625 2.265625 -1.015625q1.53125 0 2.25 0.984375q0.71875 0.984375 0.75 3.015625l0 1.5625zm-1.203125 -1.640625q0 -1.53125 -0.4375 -2.21875q-0.421875 -0.703125 -1.359375 -0.703125q-0.921875 0 -1.34375 0.703125q-0.421875 0.6875 -0.4375 2.125l0 1.921875q0 1.546875 0.4375 2.28125q0.453125 0.71875 1.359375 0.71875q0.890625 0 1.3125 -0.6875q0.4375 -0.6875 0.46875 -2.171875l0 -1.96875zm6.7028046 5.6875l-1.21875 0l0 -8.03125l-2.421875 0.90625l0 -1.09375l3.453125 -1.296875l0.1875 0l0 9.515625zm9.640305 -8.796875l-3.921875 8.796875l-1.265625 0l3.90625 -8.484375l-5.125 0l0 -0.984375l6.40625 0l0 0.671875z" fill-rule="nonzero"/><path fill="#000000" fill-opacity="0.0" d="m144.89764 508.84778l92.377945 0l0 35.55902l-92.377945 0z" fill-rule="evenodd"/><path fill="#000000" d="m160.89764 530.64777l-6.21875 0l0 -0.859375l3.28125 -3.65625q0.734375 -0.828125 1.0 -1.34375q0.28125 -0.515625 0.28125 -1.0625q0 -0.75 -0.453125 -1.21875q-0.4375 -0.46875 -1.1875 -0.46875q-0.890625 0 -1.390625 0.515625q-0.5 0.5 -0.5 1.40625l-1.203125 0q0 -1.296875 0.84375 -2.109375q0.84375 -0.8125 2.25 -0.8125q1.328125 0 2.09375 0.703125q0.765625 0.6875 0.765625 1.84375q0 1.390625 -1.78125 3.328125l-2.546875 2.75l4.765625 0l0 0.984375zm7.2184296 -4.046875q0 2.125 -0.734375 3.15625q-0.71875 1.015625 -2.25 1.015625q-1.515625 0 -2.25 -1.0q-0.71875 -1.0 -0.75 -3.0l0 -1.609375q0 -2.09375 0.71875 -3.109375q0.71875 -1.015625 2.265625 -1.015625q1.53125 0 2.25 0.984375q0.71875 0.984375 0.75 3.015625l0 1.5625zm-1.203125 -1.640625q0 -1.53125 -0.4375 -2.21875q-0.421875 -0.703125 -1.359375 -0.703125q-0.921875 0 -1.34375 0.703125q-0.421875 0.6875 -0.4375 2.125l0 1.921875q0 1.546875 0.4375 2.28125q0.453125 0.71875 1.359375 0.71875q0.890625 0 1.3125 -0.6875q0.4375 -0.6875 0.46875 -2.171875l0 -1.96875zm8.952805 5.6875l-6.21875 0l0 -0.859375l3.28125 -3.65625q0.734375 -0.828125 1.0 -1.34375q0.28125 -0.515625 0.28125 -1.0625q0 -0.75 -0.453125 -1.21875q-0.4375 -0.46875 -1.1875 -0.46875q-0.890625 0 -1.390625 0.515625q-0.5 0.5 -0.5 1.40625l-1.203125 0q0 -1.296875 0.84375 -2.109375q0.84375 -0.8125 2.25 -0.8125q1.328125 0 2.09375 0.703125q0.765625 0.6875 0.765625 1.84375q0 1.390625 -1.78125 3.328125l-2.546875 2.75l4.765625 0l0 0.984375zm5.2340546 0l-1.21875 0l0 -8.03125l-2.421875 0.90625l0 -1.09375l3.453125 -1.296875l0.1875 0l0 9.515625z" fill-rule="nonzero"/><path fill="#000000" fill-opacity="0.0" d="m34.83727 496.6299l0 18.897675" fill-rule="evenodd"/><path stroke="#000000" stroke-width="1.0" stroke-linejoin="round" stroke-linecap="butt" d="m34.83727 496.6299l0 18.897675" fill-rule="evenodd"/><path fill="#000000" fill-opacity="0.0" d="m169.32283 496.6299l0 18.897675" fill-rule="evenodd"/><path stroke="#000000" stroke-width="1.0" stroke-linejoin="round" stroke-linecap="butt" d="m169.32283 496.6299l0 18.897675" fill-rule="evenodd"/><path fill="#6d9eeb" d="m67.66404 120.53543l0 0l0 0c0 -1.9755478 -0.7847824 -3.8701859 -2.1817093 -5.267105c-1.3969193 -1.3969269 -3.2915573 -2.1817093 -5.267109 -2.1817093l-43.02362 0c-4.1138687 0 -7.448818 3.3349457 -7.448818 7.4488144l0 0l0 0c0 4.1138687 3.3349495 7.448822 7.448818 7.448822l43.02362 0l0 0c4.1138725 0 7.448818 -3.3349533 7.448818 -7.448822z" fill-rule="evenodd"/><path fill="#6d9eeb" d="m91.74803 120.77165l0 -0.47244263l0 0c0 -1.9128952 -0.7598953 -3.7474518 -2.1125183 -5.100075c-1.3526306 -1.352623 -3.1871796 -2.1125183 -5.1000824 -2.1125183l0 0l0 0c-3.983406 0 -7.212593 3.229187 -7.212593 7.212593l0 0.47244263c0 3.983406 3.229187 7.2126007 7.212593 7.2126007l0 0l0 0c3.9834137 0 7.2126007 -3.2291946 7.2126007 -7.2126007z" fill-rule="evenodd"/><path fill="#6d9eeb" d="m115.83202 120.77165l0 -0.47244263l0 0c0 -1.9128952 -0.75990295 -3.7474518 -2.112526 -5.100075c-1.352623 -1.352623 -3.187172 -2.1125183 -5.100075 -2.1125183l0 0l0 0c-3.983406 0 -7.2126007 3.229187 -7.2126007 7.212593l0 0.47244263c0 3.983406 3.2291946 7.2126007 7.2126007 7.2126007l0 0l0 0c3.983406 0 7.2126007 -3.2291946 7.2126007 -7.2126007z" fill-rule="evenodd"/><path fill="#6d9eeb" d="m139.91602 120.77165l0 -0.47244263l0 0c0 -1.9128952 -0.75990295 -3.7474518 -2.1125336 -5.100075c-1.3526154 -1.352623 -3.1871643 -2.1125183 -5.100067 -2.1125183l0 0l0 0c-3.9834137 0 -7.2126007 3.229187 -7.2126007 7.212593l0 0.47244263c0 3.983406 3.229187 7.2126007 7.2126007 7.2126007l0 0l0 0c3.9833984 0 7.2126007 -3.2291946 7.2126007 -7.2126007z" fill-rule="evenodd"/><path fill="#6d9eeb" d="m164.0 120.77165l0 -0.47244263l0 0c0 -1.9128952 -0.75990295 -3.7474518 -2.1125183 -5.100075c-1.3526306 -1.352623 -3.1871796 -2.1125183 -5.1000824 -2.1125183l0 0l0 0c-3.9833984 0 -7.2126007 3.229187 -7.2126007 7.212593l0 0.47244263c0 3.983406 3.2292023 7.2126007 7.2126007 7.2126007l0 0l0 0c3.9834137 0 7.2126007 -3.2291946 7.2126007 -7.2126007z" fill-rule="evenodd"/><path fill="#6d9eeb" d="m873.3779 120.53543l0 0l0 0c0 -1.9755478 -0.78479004 -3.8701859 -2.1817017 -5.267105c-1.3969116 -1.3969269 -3.291565 -2.1817093 -5.26709 -2.1817093l-684.8189 0c-4.113861 0 -7.448807 3.3349457 -7.448807 7.4488144l0 0l0 0c0 4.1138687 3.3349457 7.448822 7.448807 7.448822l684.8189 0l0 0c4.1138916 0 7.4487915 -3.3349533 7.4487915 -7.448822z" fill-rule="evenodd"/><path fill="#6d9eeb" d="m895.853 120.77165l0 -0.47244263l0 0c0 -1.9128952 -0.7598877 -3.7474518 -2.1125488 -5.100075c-1.3526001 -1.352623 -3.1871338 -2.1125183 -5.1000366 -2.1125183l0 0l0 0c-3.9834595 0 -7.2126465 3.229187 -7.2126465 7.212593l0 0.47244263c0 3.983406 3.229187 7.2126007 7.2126465 7.2126007l0 0l0 0c3.9833984 0 7.2125854 -3.2291946 7.2125854 -7.2126007z" fill-rule="evenodd"/><path fill="#6d9eeb" d="m919.937 120.77165l0 -0.47244263l0 0c0 -1.9128952 -0.7598877 -3.7474518 -2.1125488 -5.100075c-1.3526001 -1.352623 -3.1871338 -2.1125183 -5.1000366 -2.1125183l0 0l0 0c-3.9833984 0 -7.2125854 3.229187 -7.2125854 7.212593l0 0.47244263c0 3.983406 3.229187 7.2126007 7.2125854 7.2126007l0 0l0 0c3.9833984 0 7.2125854 -3.2291946 7.2125854 -7.2126007z" fill-rule="evenodd"/><path fill="#6d9eeb" d="m944.021 120.77165l0 -0.47244263l0 0c0 -1.9128952 -0.7598877 -3.7474518 -2.1125488 -5.100075c-1.3526001 -1.352623 -3.1871338 -2.1125183 -5.1000366 -2.1125183l0 0l0 0c-3.9833984 0 -7.2125854 3.229187 -7.2125854 7.212593l0 0.47244263c0 3.983406 3.229187 7.2126007 7.2125854 7.2126007l0 0l0 0c3.9833984 0 7.2125854 -3.2291946 7.2125854 -7.2126007z" fill-rule="evenodd"/><path fill="#cfe2f3" d="m23.631233 83.01837l30.141731 0l0 25.196854l-30.141731 0z" fill-rule="evenodd"/><path stroke="#3c78d8" stroke-width="2.0" stroke-linejoin="round" stroke-linecap="butt" d="m23.631233 83.01837l30.141731 0l0 25.196854l-30.141731 0z" fill-rule="evenodd"/><path fill="#000000" d="m40.318733 97.30242l0 -1.578125l5.65625 0l0 4.953125q-1.296875 1.046875 -2.6875 1.578125q-1.375 0.515625 -2.84375 0.515625q-1.96875 0 -3.578125 -0.84375q-1.609375 -0.84375 -2.421875 -2.4375q-0.8125 -1.59375 -0.8125 -3.5625q0 -1.953125 0.8125 -3.640625q0.8125 -1.6875 2.34375 -2.5q1.53125 -0.828125 3.515625 -0.828125q1.453125 0 2.625 0.46875q1.171875 0.46875 1.828125 1.3125q0.671875 0.828125 1.015625 2.171875l-1.59375 0.4375q-0.296875 -1.015625 -0.75 -1.59375q-0.4375 -0.59375 -1.265625 -0.9375q-0.828125 -0.34375 -1.84375 -0.34375q-1.203125 0 -2.09375 0.375q-0.890625 0.359375 -1.4375 0.96875q-0.53125 0.59375 -0.828125 1.3125q-0.515625 1.234375 -0.515625 2.6875q0 1.78125 0.609375 2.984375q0.625 1.203125 1.796875 1.796875q1.171875 0.578125 2.5 0.578125q1.140625 0 2.234375 -0.4375q1.09375 -0.453125 1.65625 -0.953125l0 -2.484375l-3.921875 0z" fill-rule="nonzero"/><path fill="#000000" fill-opacity="0.0" d="m164.03674 152.3202l786.5512 -3.0236206" fill-rule="evenodd"/><path stroke="#000000" stroke-width="4.0" stroke-linejoin="round" stroke-linecap="butt" d="m164.03674 152.3202l762.55133 -2.9313507" fill-rule="evenodd"/><path fill="#000000" stroke="#000000" stroke-width="4.0" stroke-linecap="butt" d="m926.6135 155.99573l18.126831 -6.6766663l-18.177673 -6.537094z" fill-rule="evenodd"/><path fill="#000000" fill-opacity="0.0" d="m143.86876 152.3202l-66.55117 0" fill-rule="evenodd"/><path stroke="#000000" stroke-width="4.0" stroke-linejoin="round" stroke-linecap="butt" stroke-dasharray="4.0,12.0" d="m143.86876 152.3202l-66.55117 0" fill-rule="evenodd"/><path fill="#000000" fill-opacity="0.0" d="m9.753281 152.3202l48.40945 0" fill-rule="evenodd"/><path stroke="#000000" stroke-width="4.0" stroke-linejoin="round" stroke-linecap="butt" d="m9.753281 152.3202l48.40945 0" fill-rule="evenodd"/><path fill="#000000" fill-opacity="0.0" d="m9.753281 156.84776l92.37795 0l0 35.559067l-92.37795 0z" fill-rule="evenodd"/><path fill="#000000" d="m25.75328 178.64777l-6.21875 0l0 -0.859375l3.28125 -3.65625q0.734375 -0.828125 1.0 -1.34375q0.28125 -0.515625 0.28125 -1.0625q0 -0.75 -0.453125 -1.21875q-0.4375 -0.46875 -1.1875 -0.46875q-0.890625 0 -1.390625 0.515625q-0.5 0.5 -0.5 1.40625l-1.203125 0q0 -1.296875 0.84375 -2.109375q0.84375 -0.8125 2.25 -0.8125q1.328125 0 2.09375 0.703125q0.765625 0.6875 0.765625 1.84375q0 1.390625 -1.78125 3.328125l-2.546875 2.75l4.765625 0l0 0.984375zm7.2184296 -4.046875q0 2.125 -0.734375 3.15625q-0.71875 1.015625 -2.25 1.015625q-1.515625 0 -2.25 -1.0q-0.71875 -1.0 -0.75 -3.0l0 -1.609375q0 -2.09375 0.71875 -3.109375q0.71875 -1.015625 2.265625 -1.015625q1.53125 0 2.25 0.984375q0.71875 0.984375 0.75 3.015625l0 1.5625zm-1.203125 -1.640625q0 -1.53125 -0.4375 -2.21875q-0.421875 -0.703125 -1.359375 -0.703125q-0.921875 0 -1.34375 0.703125q-0.421875 0.6875 -0.4375 2.125l0 1.921875q0 1.546875 0.4375 2.28125q0.453125 0.71875 1.359375 0.71875q0.890625 0 1.3125 -0.6875q0.4375 -0.6875 0.46875 -2.171875l0 -1.96875zm6.7028046 5.6875l-1.21875 0l0 -8.03125l-2.421875 0.90625l0 -1.09375l3.453125 -1.296875l0.1875 0l0 9.515625zm9.640305 -8.796875l-3.921875 8.796875l-1.265625 0l3.90625 -8.484375l-5.125 0l0 -0.984375l6.40625 0l0 0.671875z" fill-rule="nonzero"/><path fill="#000000" fill-opacity="0.0" d="m144.89764 156.84776l92.377945 0l0 35.559067l-92.377945 0z" fill-rule="evenodd"/><path fill="#000000" d="m160.89764 178.64777l-6.21875 0l0 -0.859375l3.28125 -3.65625q0.734375 -0.828125 1.0 -1.34375q0.28125 -0.515625 0.28125 -1.0625q0 -0.75 -0.453125 -1.21875q-0.4375 -0.46875 -1.1875 -0.46875q-0.890625 0 -1.390625 0.515625q-0.5 0.5 -0.5 1.40625l-1.203125 0q0 -1.296875 0.84375 -2.109375q0.84375 -0.8125 2.25 -0.8125q1.328125 0 2.09375 0.703125q0.765625 0.6875 0.765625 1.84375q0 1.390625 -1.78125 3.328125l-2.546875 2.75l4.765625 0l0 0.984375zm7.2184296 -4.046875q0 2.125 -0.734375 3.15625q-0.71875 1.015625 -2.25 1.015625q-1.515625 0 -2.25 -1.0q-0.71875 -1.0 -0.75 -3.0l0 -1.609375q0 -2.09375 0.71875 -3.109375q0.71875 -1.015625 2.265625 -1.015625q1.53125 0 2.25 0.984375q0.71875 0.984375 0.75 3.015625l0 1.5625zm-1.203125 -1.640625q0 -1.53125 -0.4375 -2.21875q-0.421875 -0.703125 -1.359375 -0.703125q-0.921875 0 -1.34375 0.703125q-0.421875 0.6875 -0.4375 2.125l0 1.921875q0 1.546875 0.4375 2.28125q0.453125 0.71875 1.359375 0.71875q0.890625 0 1.3125 -0.6875q0.4375 -0.6875 0.46875 -2.171875l0 -1.96875zm8.952805 5.6875l-6.21875 0l0 -0.859375l3.28125 -3.65625q0.734375 -0.828125 1.0 -1.34375q0.28125 -0.515625 0.28125 -1.0625q0 -0.75 -0.453125 -1.21875q-0.4375 -0.46875 -1.1875 -0.46875q-0.890625 0 -1.390625 0.515625q-0.5 0.5 -0.5 1.40625l-1.203125 0q0 -1.296875 0.84375 -2.109375q0.84375 -0.8125 2.25 -0.8125q1.328125 0 2.09375 0.703125q0.765625 0.6875 0.765625 1.84375q0 1.390625 -1.78125 3.328125l-2.546875 2.75l4.765625 0l0 0.984375zm5.2340546 0l-1.21875 0l0 -8.03125l-2.421875 0.90625l0 -1.09375l3.453125 -1.296875l0.1875 0l0 9.515625z" fill-rule="nonzero"/><path fill="#000000" fill-opacity="0.0" d="m34.83727 144.62993l0 18.897629" fill-rule="evenodd"/><path stroke="#000000" stroke-width="1.0" stroke-linejoin="round" stroke-linecap="butt" d="m34.83727 144.62993l0 18.897629" fill-rule="evenodd"/><path fill="#000000" fill-opacity="0.0" d="m169.32283 144.62993l0 18.897629" fill-rule="evenodd"/><path stroke="#000000" stroke-width="1.0" stroke-linejoin="round" stroke-linecap="butt" d="m169.32283 144.62993l0 18.897629" fill-rule="evenodd"/></g></svg>
