<?xml version="1.0" encoding="UTF-8"?>
<svg viewBox="-77.187 -142.54 359.32 311.91" xmlns="http://www.w3.org/2000/svg" xmlns:bx="https://boxy-svg.com" xmlns:xlink="http://www.w3.org/1999/xlink">
<defs>
<linearGradient id="i" x1="26.649" x2="135.67" y1="20.604" y2="114.4" gradientTransform="matrix(.66219 .16956 .0286 .65972 -56.894 -105.04)" gradientUnits="userSpaceOnUse" xlink:href="#b"/>
<linearGradient id="b">
<stop stop-color="#5a9fd4" offset="0"/>
<stop stop-color="#306998" offset="1"/>
</linearGradient>
<linearGradient id="o" x1="26.649" x2="135.67" y1="20.604" y2="114.4" gradientTransform="matrix(.43455 0 0 .43874 -33.33 -6.7551)" gradientUnits="userSpaceOnUse" xlink:href="#b"/>
<linearGradient id="p" x1="26.649" x2="135.67" y1="20.604" y2="114.4" gradientTransform="matrix(.30607 0 0 .30903 -19.807 55.43)" gradientUnits="userSpaceOnUse" xlink:href="#b"/>
<linearGradient id="a">
<stop stop-color="#ffd43b" offset="0"/>
<stop stop-color="#ffe873" offset="1"/>
</linearGradient>
<linearGradient id="k" x1="34.052" x2="34.052" y1="65.12" y2="91.666" gradientTransform="translate(-18.965 -14.351)" gradientUnits="userSpaceOnUse" xlink:href="#a"/>
<linearGradient id="l" x1="34.1" x2="34.1" y1="8.763" y2="44.926" gradientTransform="translate(-18.965 -14.351)" gradientUnits="userSpaceOnUse" xlink:href="#a"/>
<linearGradient id="m" x1="34.034" x2="34.034" y1="105.36" y2="125.02" gradientTransform="translate(-18.965 -14.351)" gradientUnits="userSpaceOnUse" xlink:href="#a"/>
<linearGradient id="n" x1="34.069" x2="34.069" y1="-66.355" y2="-39.811" gradientTransform="translate(-18.965 -14.351)" gradientUnits="userSpaceOnUse" xlink:href="#a"/>
<radialGradient id="j" cx="34.082" cy="-77.965" r="14.147" gradientTransform="translate(-18.965 -8.439)" gradientUnits="userSpaceOnUse" xlink:href="#a"/>
<style bx:fonts="Abel">@import url(https://fonts.googleapis.com/css2?family=Abel%3Aital%2Cwght%400%2C400&amp;display=swap);</style>
</defs>
<rect x="-52.184" y="-115.76" width="328.02" height="240.92" rx="7" ry="7" fill="#fff" stroke="#000"/>
<path d="m12.241 91.009 5.657 0.192-0.575 19.465s-2.391 2.172-4.507 0l-0.575-19.657z" fill="url(#m)" stroke="#000" stroke-width="2"/>
<path d="m9.712-5.177-1.689-67.284 14.647-8.115-1.93 73.506-11.028 1.893z" fill="url(#n)" stroke="#000" stroke-width="2"/>
<path d="m20.616-5.446-0.997 36.021h-8.969l-0.997-36.163 10.963 0.142z" fill="url(#l)" stroke="#000" stroke-width="2"/>
<path d="m44.017-59.233c-4.306-1.805-25.112-7.23-28.964-6.548-11.346 2.004-12.426 5.918-13.163 11.754-0.782 6.193-1.338 15.969 10.427 15.554 6.161-0.217 18.401-2.275 18.082 3.881-0.545 10.527-28.35 11.471-28.35 11.471-7.792 1.65-13.755 4.98-15.89 13.89-2.461 10.213-1.836 21.285 8.739 25.412l15.501 6.933-0.73-28.636c31.279 0.049 39.692-7.092 41.929-29.764 1.027-10.405-0.061-20.795-7.581-23.947zm-27.741-0.151c2.769 0 5.031 2.298 5.031 5.125 0 2.816-2.262 5.093-5.031 5.093-2.78 0-5.032-2.277-5.032-5.093 0-2.827 2.252-5.125 5.032-5.125z" fill="url(#i)" stroke="#000" stroke-width="2"/>
<path transform="matrix(-1 0 0 -1 28.059 75.025)" d="m16.262 2.497c-7e-3 -0.041 0.525 19.049 0.677 19.072v2.631l-21.696 9.774c-4.773 2.013-10.92 9.457-11.146 16.182-0.212 6.302 0.183 17.124 10.625 20.151l12.756 2.221 1.054-20.939c4.107-1.612 22.93-7.446 22.93-7.446 12.045-4.773 12.031-14.346 12.448-19.042 0.459-5.163-0.751-10.907-6.688-14.926-8.118-5.496-20.956-7.654-20.96-7.678z" fill="url(#o)" stroke="#000" stroke-width="2"/>
<path d="m18.805 61.799c-0.058-0.095-0.566 15.642-0.566 15.642s-7.305-1.23-14.911 1.381c-6.308 2.165-9.428 11.872-4.023 19.816 0 0 1.858-10.04 9.734-8.081 4.62 1.149 15.477 3.071 20.927-5.171 2.8-4.234 2.287-7.705 2.205-10.915-0.096-3.751-1.062-6.97-4.413-9.271-2.095-1.438-8.895-3.307-8.953-3.401z" fill="url(#p)" stroke="#000" stroke-width="2"/>
<path d="m11.183 50.769 7.923-3.492-0.836 30.038-6.487-0.12-0.6-26.426z" fill="url(#k)" stroke="#000" stroke-width="2"/>
<ellipse cx="15.117" cy="-86.404" rx="14.147" ry="18.218" fill="url(#j)" stroke="#000" stroke-width="2"/>
<rect x="-34.877" y="-113.96" width="103.37" height="237.66" rx="7" ry="7" fill="none"/>
<text transform="translate(-44.954 47.763)" fill="rgb(51, 51, 51)" font-family="Abel" font-size="86px" style="white-space:pre"><tspan x="113.594" y="-50.429">EDS-</tspan><tspan x="113.594" dy="1em">​</tspan><tspan>scikit</tspan></text>
</svg>
